<svg id="ngsek" xmlns="http://www.w3.org/2000/svg" viewBox="0 0 1386 416"><defs><style>.cls-1{fill:#fff;}</style></defs><title>ngsek</title><path class="cls-1" d="M160.92,286.75q0-1.68-1.93,5.55,0,.24-1.09.72a7.48,7.48,0,0,0-2.53,2.41,13.3,13.3,0,0,1-.48,2.89q-.49.72-2.41,3t-1.69,3q-1,0-5.31.24-1,.48-.48,1.69l.72,1.93-.72,3.62.48.48h-1.93c-.32,0-1-.48-1.93-1.45l-1.21,1.21q-.72-.72-1.93-2.17c0-.16.16-.4.48-.72a.85.85,0,0,0,1,1v-4.1a4.19,4.19,0,0,0-1.21-.48q-.24.72-1,2.41c.16-.81-.24-1.21-1.21-1.21a4.48,4.48,0,0,0,2.17-2.41c.16-.16.08-.32-.24-.48a2,2,0,0,1-1.45,1h-.24c0-.16-.16-.24-.48-.24s-.69.56-1.09,1.69a12.09,12.09,0,0,1-1.09,2.41q-.49-1.45-1.21-3.86h-1c-.32.48-.48,1.69-.48,3.62a4,4,0,0,1-1.21-1.69,5,5,0,0,1-1,1.93q-1.21-.49-3.38-6L123,297.61a11.61,11.61,0,0,0,.24-2.65,20.92,20.92,0,0,1-1.21-2.17q-.49-3.14-1.93-8.93-1.21-1.68-3.38-5.07a3.72,3.72,0,0,0-1.93-.72,12.49,12.49,0,0,0-.72-1.21q-.49-.72-11.58-10.37a3.62,3.62,0,0,0-2.17-2.41,112.56,112.56,0,0,1-9.89-10.13q-1.93-.48-4.95-3.74A30.85,30.85,0,0,0,81.07,246a7,7,0,0,1-2.41-3.38,3.88,3.88,0,0,1-1-.24,9.14,9.14,0,0,0-3.38-3.14l-3.14-2.17q-5.31-5.79-16.4-17.13h-1l-.48,1.69q0,.49,2.89,5.55a2.93,2.93,0,0,0,1-.36,2.83,2.83,0,0,1,1.21-.36l-.72.72q4.82,5.55,15,16.16a10.14,10.14,0,0,0,3.62,2.41q.72,1,3.62,4.1a50.12,50.12,0,0,0,4.82,4.1q.48,1.69,3.14,3.74t3.14,3.5q-2.66-1.93-9.89-7.48a25.57,25.57,0,0,0-3.62-3.86q-1.21-.48-3.38-1.45a120.24,120.24,0,0,1-16.4-14.71q-1-1.2-3.62-4.1,0,1.93-.72,9.41l1.45,13a29.15,29.15,0,0,1,1.45,5.55,8.58,8.58,0,0,0,2.89,4.34l-2.41,2.41q-1.93-.72-3.14-4t-2.17-6.15l-1,1q-.24,8.2-.24,10.13a29.71,29.71,0,0,1-1,6,14,14,0,0,0,.72,3.38v9.17H46.57c.16,0-.16-.4-1-1.21a25.54,25.54,0,0,1-4.1,3.62,7.1,7.1,0,0,1,.24,2.41,11.6,11.6,0,0,1-2.65.24,20.41,20.41,0,0,1-2.17,2.41,7.47,7.47,0,0,1-3.38.72,26.11,26.11,0,0,1-4.34-1.69q-.72.48-.72.72,0,1,2.17,4.82a2.17,2.17,0,0,0,1.93,1.45,6.55,6.55,0,0,1-1.21,1.69q1,2.89-1.69,5.79l-.48,1.93H27.52a17.2,17.2,0,0,0-4.1-3.14,4.79,4.79,0,0,0-.48-2.17v-.24q0,.24.72-.72a19.68,19.68,0,0,1,.24-2.65l2.89-2.9a1.79,1.79,0,0,1-.72-1.93q-1.21-2.89-2.89-2.17a.85.85,0,0,0,1,1q-1.69-.24-1.81,1.93t-1.81,2.17a2.22,2.22,0,0,0-1.93-.48,14.52,14.52,0,0,1-1.69-7v-1.21a4.67,4.67,0,0,1-2.17-1.69,5.07,5.07,0,0,0,.24-1.93q-.24-.72-4.34-1.21a9,9,0,0,1,.48-2.53,9.32,9.32,0,0,0,.48-2.05q0,.49-2.65-8.68a1,1,0,0,0-1-.48l-2.41-31.6V220.41A14.61,14.61,0,0,1,7,215.59a1,1,0,0,0-.36-.6,1.15,1.15,0,0,1-.36-.84q0-.48,1.45-7a11.52,11.52,0,0,1,1.21-5.55q0-.24-1-4.1A2,2,0,0,1,9.42,197q.72-3.86,2.41-10.37v-1.93A51.5,51.5,0,0,1,13.53,178,4.78,4.78,0,0,1,15,176.27q-.24.49-.24-1.93h1.45a5.69,5.69,0,0,1-.72,2.41,8.41,8.41,0,0,1,1.45,3.38,2.91,2.91,0,0,1-.72,1.45,2.94,2.94,0,0,0-.72,1.45,1,1,0,0,0,.24.72,15.6,15.6,0,0,0,4.1-6.51q.72-3.62,1.69-7,2.65-1.2,2.65-1.69A6.41,6.41,0,0,0,27,167.34a4.18,4.18,0,0,0,.72,1.69,2,2,0,0,1,1.21-.72,4.18,4.18,0,0,1,3.38,1.93h.48c1.93,0,3.05.24,3.38.72a1.26,1.26,0,0,0,1.09-.48c.24-.32.44-.48.6-.48a4.8,4.8,0,0,0,1.45,1,2.82,2.82,0,0,1-.24.84,3.52,3.52,0,0,0-.24,1.33,6.39,6.39,0,0,0,.48,2.41,1.38,1.38,0,0,1,1.45-.48l.72-.48a3,3,0,0,0-.24-1.09,2.91,2.91,0,0,1-.24-1.09l1.45-1.69q-5.55-12.3-5.55-12.79,0-.72,1.45-2.17A8,8,0,0,0,36,153.11q-.24-.72-.72-2.89l-1,.72c-.32-.64-.81-1.69-1.45-3.14.16,0,.56.32,1.21,1l1.21-2.17a2.17,2.17,0,0,1,1.93-1.45q.72,0,3.38,4.58,3.13,5.55,3.62,5.79,1.93,1.21,5.31,3.86.48,2.41,3.38,5.79.24.72,8.2,9.41a14.28,14.28,0,0,0,2.65,2.17l3.62,3.62q2.41,2.66,3.86,2.41,3.38,3.62,2.89,3.62c.32,0,.48-.08.48-.24h.24q2.41,0,4.1,4.58a7.86,7.86,0,0,0,.48,2.41,74.81,74.81,0,0,0,6.75,6q1-.48,0-1.45,7.72,8,22,20.26l.48-2.41a11.08,11.08,0,0,0,1.21-.72,5.15,5.15,0,0,1,.24-1.33,5.58,5.58,0,0,0,.24-1.09q.24,1.69.72,5.55h1.69a22.64,22.64,0,0,0,.72-5.55q0-1-.24-4.34t-.24-5.31a2.81,2.81,0,0,0,.48-.72,66,66,0,0,1,.72-11.1,67.15,67.15,0,0,1-.24-6.75,41.08,41.08,0,0,1,1.45-8.93.68.68,0,0,1-.24-.48q1-6.27,3.38-18.33a5.61,5.61,0,0,0,.72-1.57,21.75,21.75,0,0,0,.48-3,14.76,14.76,0,0,0,2.17-3.14V150a1,1,0,0,0,.72.24q.72,0,1.45-1.45-1.45,9.65-1.45,8.93a6.91,6.91,0,0,0,.72,3.14q.48-2.89,1.69-8.93a25.58,25.58,0,0,0,2.41-6.27q0-2.41.24-6.75,1-2.17,2.41-6a39.41,39.41,0,0,1,1.45-6.27,24.39,24.39,0,0,0,.48,4.1,9,9,0,0,0,2.17-3.86q2.17-4.82,6.75-14.72c.16-.48.72-.88,1.69-1.21a9,9,0,0,1-1.21,4.82,1.76,1.76,0,0,0,2.17-.48v2.41a19.74,19.74,0,0,0-.24,2.65h1a62.63,62.63,0,0,1,2.65-6.27,28.1,28.1,0,0,1,2.65-3.62q1.68-1.93,4.34-8.2a7.71,7.71,0,0,1,2.17.48v1.69a12.69,12.69,0,0,0-3.86,7.72.64.64,0,0,0-.72.72c0-.8.16-.56.48.72a4.78,4.78,0,0,0,0,2.17,7.58,7.58,0,0,0,1.69,1.69,3.24,3.24,0,0,1,.24,1.69,33.48,33.48,0,0,1-1.33,4.46,33,33,0,0,0-1.33,4.46c0,.16.24.48.72,1a2,2,0,0,1,.72,1.21,2.5,2.5,0,0,1-.48,1,2.33,2.33,0,0,0-.48,1.21,42,42,0,0,1,.24,5.31,25.79,25.79,0,0,1-1.21,2.65c-.16.16.08.24.72.24q.48,0,2.17-3.38.24-.72,1.21-2.89a5.72,5.72,0,0,0-.48-2.89,3.63,3.63,0,0,0,2.17-2.89,9.76,9.76,0,0,1,1.21-3.86c.48.32.76,1.29.84,2.89s.6,2.5,1.57,2.65a8.22,8.22,0,0,0-1.21,4.34q-.24,3.14-2.17,4.34c0,.16.32.4,1,.72a11.92,11.92,0,0,1,1,4.34q0,.49-1.45,2.17.48,1-.72,5.07a30.27,30.27,0,0,1-.48,7.24q0,.72-.48,6.27a6.87,6.87,0,0,0-1.45,1.21,4,4,0,0,0,1.93.24,5.72,5.72,0,0,1-.36,1.57,13.52,13.52,0,0,1-.6,1.57c-.16-.48-.24-.16-.24,1q0,2.17,1.45,2.17h.72l.48-.24q-.49.72-.24,4.1.48.72,1.69,0a13.62,13.62,0,0,1,.48,4.1q0,.49-.48,4.82t-.48,5.55a21.53,21.53,0,0,0,0,4.58,5.15,5.15,0,0,0-1.21,1,1,1,0,0,0,.72.24,2.91,2.91,0,0,1-.72,1.45q2.17,2.66-.48,7a8.29,8.29,0,0,1,1,1.21,2.56,2.56,0,0,1,0,2.17c0,.16.16.4.48.72l-.48,31.84a30.36,30.36,0,0,0-1.93-3.62c-.32.32-.48,1.45-.48,3.38q0-.72,1.21,11.1-.49.72-.24,4.82a27,27,0,0,0,.72,5.31q.48,2.17-.48,2.89,1,5.55.48,6.51,1,2.89,2.65,8.44.24,1.93.72,5.31a1.82,1.82,0,0,0,.24.72A2.16,2.16,0,0,1,160.92,286.75ZM12.8,292.06h-.48v-1h.48Zm9.65-2.41-2.17-1c0,1.12.08,1.69.24,1.69A3.2,3.2,0,0,1,22.45,289.65Zm4.82-126.16-.48.48-.48-.48.24-.48ZM33.79,281.2q.48,1,1.21,2.17h1.45a4.19,4.19,0,0,1,.48-1.21A4.89,4.89,0,0,0,33.79,281.2Zm48.49-71.89q0-1.45-2.41-5.07-1.93-1-6-5.31a49.43,49.43,0,0,0-4.1-4.1q-1.21-.72-10.61-10.37L56.95,183q-1,0-1,1.45,0,1,3.62,4.58T70,199.91q1.93.24,4.58,2.89l3.38,2.89q2.65,2.17,2.65,3.62Zm.24-15.2-.48.24-1.21-1.21.24-.48Zm25.33,40.77a32,32,0,0,0-1.21-5.07c0-.16-.32-.4-1-.72a1.38,1.38,0,0,1-.72-1.69l-1,.48q-1.93-3.86-3.38-3.86a1.39,1.39,0,0,0-1,.48q-.72-2.41-5.31-6.75-8.2-7.24-9.89-8.93a2.32,2.32,0,0,1-1.21-.48c0,.16-.32.57-1,1.21q3.13,4.1,9.89,11.82Q95.3,224,107.85,234.89ZM96,229.1q-1.93-2.17-3.74-4.34T91,221.14q-1.69,1-1.69,1.93Q95.06,229.1,96,229.1Zm14.72-21.23-1,2.65-.48-.24,1-2.41ZM111,205l-.24,1.45-.72-.24.48-1.21Zm11.82-53.55h-.72l-.24,1.93h.48Zm0,10.61h-.72l-.24,2.17h.48Zm4.1,145.7-.48,1-.48-.24.48-1Zm12.3,8.44a3.86,3.86,0,0,0-1,.24h-1v-1.21a4.16,4.16,0,0,0,1-.24,3.88,3.88,0,0,1,1-.24Zm1.93-172.72a11.41,11.41,0,0,0-.24-2.17c-.64,0-1,.4-1,1.21C139.93,143.14,140.33,143.46,141.14,143.46Zm2.65,167.9v-2.17l-1-1a6.8,6.8,0,0,0-.72,1q-.49.72-.72.72c.64.64,1,1.12,1,1.45Zm1.45,2.65-.24.48-1-1,.24-.48Zm10.13-119.89c0-1.12-.64-1.69-1.93-1.69q0,2.66-.72,3.14l1,1C154.8,195.41,155.37,194.6,155.37,194.12Zm1.45-15.2a13.62,13.62,0,0,1-1-1.21c-.16.32-.48.89-1,1.69a5.36,5.36,0,0,0-.72,1.45,2.08,2.08,0,0,0,.72,1.45,32.72,32.72,0,0,0-1,3.86,7.46,7.46,0,0,1-.24,3.14c.32,1.13.4,1.77.24,1.93a2.09,2.09,0,0,1,1.45-.72l.72-3.62a14,14,0,0,0-.72-3.62,5.66,5.66,0,0,0,1-1.45A5.33,5.33,0,0,1,156.82,178.92Zm1-77.68-.48,1-.48-.24.48-1ZM159,249.6q1,0,0,1.93c0-.32-.32-.8-1-1.45A1.39,1.39,0,0,1,159,249.6Zm7.72,18.82c0,1-.57,1.45-1.69,1.45q-.72,0-3.14-2.41t-2.41-2.89v-6.27q1.45,1,2.89,4.95T166.71,268.42Zm-5.55-109.76-.48,1.21-.48-.24.48-1Z"/><path class="cls-1" d="M324.84,271.32c-2.92.84-5.88,1.26-8.86,1.84-3,.84-6,1.84-9,2.84,4,2,8,2,12,2-8,0-15,2-23,2,6,2,12,1,18,0-12,3-24,1-35,7,8,0,16-1,24,1a137.1,137.1,0,0,0-35,8c15,0,30-8,45-5-25,4-64,5-74.41,32.41q-1.84,5-3.64,9.72-12.61,33-23.38,51.32-1.21,1.69-7.24,6.27a4.22,4.22,0,0,1-1.21-.48,3.86,3.86,0,0,0-1.69-.48q-.72,0-3.26,2.17a22.94,22.94,0,0,1-3.5,2.65q-7,3.13-9.65,3.14h-2.65a.68.68,0,0,1,.24-.48V396q0-2.17-3.38-3.62l-1.69.72a7.61,7.61,0,0,0-.24-4.34q-2.17-5.31-2.17-6.27a8.94,8.94,0,0,1,1-1.93,47.2,47.2,0,0,0,.48-8.68q-.24-2.66,1.21-16.16,0,1.2,1.69,1.21L180,355q0-6.76,6-16.65,4.58-6.28,9.17-12.79,2.17-3.38,13.75-12.79.48-.24,1.21-2.41-.24-.72-.72-.72a1.55,1.55,0,0,0,1.45-1,1.63,1.63,0,0,0-1.21-.48q-1.69,0-6.75,2.65a2.35,2.35,0,0,0,1.69.48q-4.34,1-12.54,5.79a72.19,72.19,0,0,0-17.13,14.47A44.18,44.18,0,0,0,166.22,350q-3.62,15.2-3.62,17.37a14.15,14.15,0,0,0,1,5.31q.48,1.2-1,4.34a3.21,3.21,0,0,1-2.65-1.21,34.71,34.71,0,0,1-2.41-5.79q-1.2-20.51-1.21-19.06,0-11.34,8-26.78,7.24-13.27,15-20.5a67,67,0,0,1,6.51-6q2.65-1.69,7.48-4.34a11.36,11.36,0,0,1,1.93-3.62,10.65,10.65,0,0,1,3.86-3.14q6.27-1.93,18.57-6.27a4.54,4.54,0,0,1,.24-2.41,10.28,10.28,0,0,0,.48-2.41,1.65,1.65,0,0,0-.48-1.21,57.43,57.43,0,0,1-10.13,3.14,6.86,6.86,0,0,0-1.45,1.21,2.64,2.64,0,0,1-1.69,1,2,2,0,0,1-1.09-.24,2,2,0,0,0-1.09-.24q-1.21,0-12.79,4.82,4.82-1.93,14-6.27a18.65,18.65,0,0,1,3.38-2.41l10.86-1.45a26.49,26.49,0,0,0,1.69-4.34l-.48-3.62a3,3,0,0,0-1,2.17l-1-.72c-.32.16-.48.57-.48,1.21-.32,0-.81-.32-1.45-1-.32-.16-.64,0-1,.48q0,1.45,1.69,1.45-1.93.24-5.91.6t-6.15.6q1.2.49,3.62,1.21-13-3.13-15.2-3.14a19.11,19.11,0,0,0-3,.48,18.73,18.73,0,0,1-3,.48q-5.31,0-11.94-4.46T165,256.36a33.75,33.75,0,0,0-3.38-8.2,2.31,2.31,0,0,0,1.21.48,2.78,2.78,0,0,0,1-1.93,30.7,30.7,0,0,0-1.69-5.31,30.2,30.2,0,0,1-1.69-5.31V230.3a97.88,97.88,0,0,0,4.82-10.37q-1.93,13-1.93,12.3a8,8,0,0,0,.72,3.14,12.62,12.62,0,0,0,.24-3.14q0-1,2.29-6.27a39.86,39.86,0,0,1,3.74-7.24,35.4,35.4,0,0,0,4.82-3.86,53.42,53.42,0,0,1,8.2-9.89q7.72-8,9.89-10.37-2.66,3.38-5.55,6.51-3.38,4.83-2.89,7.24,6-7.47,19.54-21.23a136.65,136.65,0,0,0-13.51,15.68.76.76,0,0,0,.72.48l18.09-17.37q-.49,1.21-3.86,4.82H208a5.11,5.11,0,0,0-2.89,3.38q9.17-7.47,19.3-7.48a18.84,18.84,0,0,1,8.44,1.69l1.45-2.89a8.58,8.58,0,0,1-.48,3.14,66.67,66.67,0,0,1,12.3,6.51l2.17-.72v-2.41a8.4,8.4,0,0,0-1.93-1.45c-.48,0-.72.4-.72,1.21q-.49-1.45-3.5-1.81a10.84,10.84,0,0,1-3.74-.84h3.14q8-.24,11.82,7.48-1,1-1.93-.24l-1.45,1.45a12.15,12.15,0,0,0,3.62,3.14,10.39,10.39,0,0,1,1.21-2.17q.24,3.38-1,4.34,0,1.21,2.41,2.41a6,6,0,0,1,1.45-3.38,20.31,20.31,0,0,0,1.93,3.38H261a81.43,81.43,0,0,1,4.1-7.48q1.2,1.69.48,2.89l-1,1.93v6.27c.64.64,1,1,1.21,1a2,2,0,0,0,1.45-.48c.32-.32.56-.48.72-.48a16.83,16.83,0,0,1,1.69,3.62C271,222,267,231,263.2,238.51a11.39,11.39,0,0,0-1.21,7q-1.45,5.31-4.1,16.4a11.89,11.89,0,0,0,5.79,1.45c-.64,0,1.61-.56,6.75-1.64C273,269,281,262,284,267h-3c12,0,23,4,35.26,4.75a34.24,34.24,0,0,0,7.19-.62Zm-156.2,63-1-.24-.72,1.45,1,.24Zm35.46-32.32q-11.34,5.07-14,6.75A38.83,38.83,0,0,0,177.32,321a59.58,59.58,0,0,0-4.58,4.58,51.47,51.47,0,0,0-3.38,7.24q1.93-2.41,5.31-7A79.21,79.21,0,0,1,186,314a57,57,0,0,0,7.24-4.82,19,19,0,0,1,5.79-4Q203.13,303.15,204.1,301.95Zm-22.43-12.79L177.32,293l-.48-1,4.34-3.62Zm-1.93,49.45q0,4.34-1.21,4.34c-.16,0-.32-.16-.48-.48l1-.48A18,18,0,0,1,179.73,338.62ZM194,405.2l-2.17,1.45a3.56,3.56,0,0,0,.72,1.21,113.92,113.92,0,0,0-11.58,2.89q8-6.28,11.34-6.27Zm-4.82-120.62-6.75,4.34-.24-1,6.51-4.1ZM213,320.28h-1q-3.86,1.45-5.07,3.14-.72,2.41-2.17,6.27-1.45,2.9-4.1,8.93a.78.78,0,0,1-.24-1q1.93-4.83,5.31-14.47-9.89,3.62-19.78,19.54-1.45,2.17-1.93,7-.24.72-.84,2.65a10.85,10.85,0,0,0-.6,2.65,8.41,8.41,0,0,0,.6,2.41,8.5,8.5,0,0,1,.6,2.41q2.17-5.31,6.51-13.75,0,.72-3.14,9.41a25.77,25.77,0,0,0-1.93,4.58,66.59,66.59,0,0,0-1.45,14,19.51,19.51,0,0,0,.72,6.27H187q2.65,0,3.62-1.69,1.2-2.89,2.41-5.55c-.81,0-1.21-.32-1.21-1,.48-.32.8-.4,1-.24.64.64,1.12,1,1.45,1a1.63,1.63,0,0,1-.48-1.21,8.22,8.22,0,0,1,1.33-1.93,6.45,6.45,0,0,0,1.33-4.1,1.39,1.39,0,0,1-1-.48,8.66,8.66,0,0,0,3.86-4.82q2.65-5.55,2.65-5.79,3.38-5.07,4.82-14h-1.69Q208,333.55,213,320.28ZM187,327.52l-2.65,3.14-.72-.48,2.65-3.14Zm1.21-83.95-1-.24-.72,1.45,1,.24Zm57.17-46.32q0-2.89-4.82-4.58-6-2.17-7-3.14-1.21,4.59-4.1,13a15.74,15.74,0,0,1,1-6,56.33,56.33,0,0,0,1.69-7h-4.34q-13.27-.24-27.5,20l-3.86,5.79q-9.65,15-9.65,22a2.31,2.31,0,0,0,.72,1.69c.48.48.72.81.72,1a22.68,22.68,0,0,1,2.89-5.31l1,1c-1.29.16-1.93.77-1.93,1.81a7.44,7.44,0,0,1-.48,2.77c.16.16.72.64,1.69,1.45a4.2,4.2,0,0,0,2.17,1.21h1.69q1-2.41,2.65-6.51a1,1,0,0,1,1-.48,1.65,1.65,0,0,1,1.21.48q-1,2.41-2.89,7h8.68q5.55,0,18.57-6.51a3.67,3.67,0,0,1,.48-1.45,1.64,1.64,0,0,1,.48,1.21,5.54,5.54,0,0,0,1.45-4.1c.16,0-.24.57-1.21,1.69l-1-1q1.45-4.34,2.65-15.2a.64.64,0,0,1-.72.72q-.49-2.65.72-7.72.72-3.86,1.69-7.72l.72.72a63.9,63.9,0,0,0-1.93,13.51q2.17-16.65,8-20.75.72,1.93,1.69,4.58a6,6,0,0,0,2.05-2.17,9.33,9.33,0,0,1,2.05-2.41,12.06,12.06,0,0,1,.72,4.58Q245.34,198.22,245.35,197.25Zm-54,7.48a5.92,5.92,0,0,1-.72-1.45,18.72,18.72,0,0,1-2.17,3.14Q189.38,206.42,191.31,204.73Zm3.86,43.18v-1.69q-1.45-1-6.75-2.17a7.81,7.81,0,0,1,.72,3.86h6Zm-3.62,159.21-1-1-.48.48.72,1Zm31.84-163.8v-2.17l-1.69,1a14.87,14.87,0,0,0-5.55,1.45A6.86,6.86,0,0,1,215,245a69.61,69.61,0,0,1-11.34,1.21,35.29,35.29,0,0,1-6.27-.48q-1.45,2.66-1.21,3.38h7.48q5.07,0,14.47-3.14A26.63,26.63,0,0,1,223.4,243.33ZM199,343.92l-.72,1.69-1-.48.72-1.45Zm.48-2.17-.72,1.45-.72-.24.72-1.45Zm4.58-146.67-.72-.72-1.93,1.93.72.72Zm2.65,212.53a3.29,3.29,0,0,1-2.41,1,1.35,1.35,0,0,1-1.33-.72,13.55,13.55,0,0,0-.84-1.45c.16,0,.36.16.6.48a1.41,1.41,0,0,0,1.21.48,7.42,7.42,0,0,1,1.81.24Zm6.75-90.94c.16-.32,0-.89-.48-1.69a17.09,17.09,0,0,0-4.82,4.1Q212.54,317.87,213.5,316.66ZM250.9,196a11.5,11.5,0,0,0-.72-3.14q-.72,1-.72,3.86A3.07,3.07,0,0,1,250.9,196Zm14.47,99.15v-1h-1.69v1Zm7.72-69.72-1.93,2.41-1-.48,1.93-2.65Zm1-13.75-1.69.72v-.72l1.21-.72Z"/><path class="cls-1" d="M415,176a21.81,21.81,0,0,0-5.55,3.86c0-.32-.32-.48-1-.48q-1.21,0-2.53,2.17a11.6,11.6,0,0,0-1.57,3.38,25.55,25.55,0,0,0,7-4.82q-2.41,1.93-.24,3.38-.72.24-8.44,4.1l.24.48-1.21-.24-.72.72a17.25,17.25,0,0,0,4.34.72,10.48,10.48,0,0,0-2.17,1.69q-1.21-.48-3.62,1.09t-2.17,2.77q-.24.24-3.62,2.89c-.16.32-.08.48.24.48a4.05,4.05,0,0,0-1,.24,3.91,3.91,0,0,1-1,.24,2.46,2.46,0,0,0,1-.48q-2.41-.48-6.75,2.41h-1.45q-.72.49.24,1.45c-.16-.16-.4-.08-.72.24a1.39,1.39,0,0,1-1,.48c-.32,0-.36-.16-.12-.48s.12-.48-.36-.48q-1.45,0-13,5.79L366,208.83a4.44,4.44,0,0,0-1.09.84,1.89,1.89,0,0,1-1.81.36l-1,.72q-4.1,1-4.1,2.89a3.8,3.8,0,0,0,.72,2.53c.48.57,1.21,1.33,2.17,2.29a28.53,28.53,0,0,0,1.45,5.07c2.57.32,4,.48,4.34.48s.48-.08.48-.24.16-.24.48-.24a1.68,1.68,0,0,1,1.09.6,1.65,1.65,0,0,0,1.09.6,15.78,15.78,0,0,1,5.31.6,18.65,18.65,0,0,0,5.31.84,15.77,15.77,0,0,1,5.79,1.21l1-1q1,1,4.82,1.81a14.75,14.75,0,0,1,7.24,4.22l-.48.24q1.68,3.62,1.93,3.62a1.92,1.92,0,0,1,.72.24h1.21c.48,0,.64-.08.48-.24l2.89,3.14a1.65,1.65,0,0,0-.36.84,1.69,1.69,0,0,1-.36.84q8,5.31,8,6.51a15,15,0,0,1-.48,3.62q-.49,1.45,0,5.79a2.36,2.36,0,0,0-1.21-.48q1-2.17,0-6A138,138,0,0,1,408.72,265a40.56,40.56,0,0,1-7,14.47c-.16.32-.57,1-1.21,1.93l.48-.72-.72-.72a23.93,23.93,0,0,1-2.17,2.41,2.63,2.63,0,0,0,.72.48l1.21-.72a8,8,0,0,1-1.45,2.9,56.88,56.88,0,0,0-5.55,3.38q-1-2.17-2.17-2.17a34.18,34.18,0,0,1-3.62,1.21q-.49.72.48.72-1.21,2.41-3.14,2.41c-.32,0-.48-.08-.48-.24s-.16-.24-.48-.24a2.58,2.58,0,0,0-1.33.6,2.64,2.64,0,0,1-1.33.6c-.48,0-.72-.16-.72-.48a1,1,0,0,0-.24-.72,7.63,7.63,0,0,1-.72.6,6.36,6.36,0,0,0-.72.6,4.88,4.88,0,0,1,.84.12,1.65,1.65,0,0,1,.84.36c-.32,0-1.09-.08-2.29-.24s-2-.24-2.29-.24a1.65,1.65,0,0,0,1.21-.48c-.48-.48-.81-.72-1-.72a2.31,2.31,0,0,0-1.69.72l1.21,1.45a1.39,1.39,0,0,0-1-.48l-.48.72a2,2,0,0,0,1.21.72,15.3,15.3,0,0,0-3,1.33,8.93,8.93,0,0,1-2.53,1.09l-1.45-.48a6.43,6.43,0,0,0-2.29,1.33,6.05,6.05,0,0,1-2.41,1.33q-.6,0-3.5.24c-1.93.16-3.14.24-3.62.24-.32,0-1-.48-1.93-1.45a1.19,1.19,0,0,0,.24,1.21q-2.17.72-6,1.69-17.37,2.17-24.61,2.17h-2.41a25.27,25.27,0,0,0-2.65-.24,9,9,0,0,1-3.14-1.45,1.88,1.88,0,0,1-.72-.24h-1.21c-.48,0-.64.12-.48.36s.08.36-.24.36a2.35,2.35,0,0,1-1.21-.48,3,3,0,0,0-1.69,0,3.33,3.33,0,0,0,2.17,1.21h-1a10.47,10.47,0,0,1-1.69.24q-.49,0-1.33-.84a2.35,2.35,0,0,0-1.57-.85,1.06,1.06,0,0,0-1.21,1.21q-3.38-1.45-3.38-1.93a.68.68,0,0,1,.24-.48c-.16-.32-.64-.48-1.45-.48h-1a1,1,0,0,1-.72.24q1.45,0-8.68-2.65a64.21,64.21,0,0,0-9.41-1.93q-5.31-.72-15.2-2.41c.48,0,.72-.32.72-1Q273.63,293,277,293a2.37,2.37,0,0,0,1.69-.48q-4.59-1.93-6.27-1.93c-.32,0-.52.08-.6.24s-.28.24-.6.24q.24,0-1.69-1.21a14.44,14.44,0,0,0-6.75-1.93,2.11,2.11,0,0,1,.24-1q-2.41-1.93-6.51-5.79-.24-.24.48-3.62c0,.16-.4-.4-1.21-1.69h1.45c-.16,0,0,.24.48.72l.72-.72a36.92,36.92,0,0,1-4.1-2.41,8,8,0,0,0-1.45-2.17,5.34,5.34,0,0,1,2.65-2.65c0-.48-.56-.72-1.69-.72.48-1,1-1.49,1.45-1.57s1.13-.2,1.93-.36c-.16-1.61,0-2.57.48-2.89q2.89.72,9.17,1.69l.72.72a6,6,0,0,1,2.41,1,2,2,0,0,0,.48-1.45q4.1,2.17,6,2.17,1.2,0,1.21-1.69a1,1,0,0,0,1,.48.85.85,0,0,0,1-1q1.2.72,3.14,1.69a60.75,60.75,0,0,0,10.37,1.45.77.77,0,0,0,.72-.48.77.77,0,0,1,.72-.48c.32,0,.6.28.84.84s.52.84.84.84a29.72,29.72,0,0,1,4.7.6c2.17.4,3.41.6,3.74.6q9.65,0,20.26-.72a1.93,1.93,0,0,0-1.21-.24q4.58-.48,12.3-1.69a167.07,167.07,0,0,0,35.22-5.31c.64-.48,1-.8,1-1a10.51,10.51,0,0,0,5.07-2.17c0-1-.32-1.45-1-1.45h-1l-.48.24a9.11,9.11,0,0,0,1.93-1,2.37,2.37,0,0,0-1.69-.48q1.45-.24,7.24-3.62L373,250.57a15.47,15.47,0,0,0,4.58,1h6v-1.69q-1.93-.24-5.91-.84t-12.18-2.53l-1.45.24q1.2,1.21,1.21,1.45a11.5,11.5,0,0,0-4.1-1c.16,0,.4-.16.72-.48A2.18,2.18,0,0,0,360,246a3.43,3.43,0,0,0-1.93.48q-.49.24.48,1.93-1.21-.24-7.48-4.58c-.48.48-.57.89-.24,1.21a4.66,4.66,0,0,0-2.41-.72q-2.66,0-2.77,1.45c-.08,1-.2,2-.36,3.14a6.42,6.42,0,0,0-2.89-.72,8.45,8.45,0,0,0-1.57.24,8.17,8.17,0,0,1-1.57.24c-.32.32-.24,1,.24,1.93a6.76,6.76,0,0,0-4.58,1,4,4,0,0,0-.72-3.38q-1.45.24-3.14,4.58a3.62,3.62,0,0,0-.24-2.41H329.6a3.06,3.06,0,0,0,0,2.89,2.87,2.87,0,0,0-2.17.48,21.69,21.69,0,0,0-1-3.14,8.19,8.19,0,0,1-3.14,2.17,5.48,5.48,0,0,1,1.93-1.93,21.27,21.27,0,0,1,1-4.1l-.24-1.93q-1,1-.24,1.45c-.16,0-.57.32-1.21,1a2.4,2.4,0,0,1-1-2.41,10.27,10.27,0,0,0,0-3.14q-3.38,1.45-2.89,6.51c0-.16-.12-.32-.36-.48a.81.81,0,0,1-.36-.72q0-1.45,3.38-7.24l-.24-1.93q-.72,0-1.45,1.93.24,0-1.45-1.69a2.48,2.48,0,0,0-1.69,2.41,2,2,0,0,0-1.21-.72h-.72a.7.7,0,0,1-.48.24q3.13-3.86,3.14-5.31c0-.48-.08-.76-.24-.84a.77.77,0,0,1-.36-.36,1,1,0,0,1-.12-.48h-1q-1.93,0-3.14,2.41a3.2,3.2,0,0,1-1.09-.48,3,3,0,0,0-1.33-.48q.72-7,13.51-30.64a37,37,0,0,1,6-7.6q4.34-4.46,5.31-7.12v1.69q2.65-2.65,7.72-7,2.65-1.68,5.07-3.38,3.38-2.65,3.62-4.34a9.32,9.32,0,0,0,1.33-.24,8.45,8.45,0,0,1,1.57-.24q1.45,0,10.61-5.07,4.58-2.65,9.41-5.31,7-2.41,8-4.82c0,.16.32.24,1,.24q1.2,0,5.31-2.65a2,2,0,0,0-1.21-.72l1-1.21c.16,0,.28.28.36.84s.36.84.84.84a2.94,2.94,0,0,0,1.45-.72c.16,0,.36.24.6.72a4,4,0,0,0,.6,1q1.2-.48,3.62-1.69v2.9a2.2,2.2,0,0,0-1.45,0v.72a10.32,10.32,0,0,0-1.69-.48l-.24,2.41q3.62,0,4.34-2.89,6-2.89,7.48-2.17a2.91,2.91,0,0,1-.72,1.45,1.39,1.39,0,0,0,1,.24,8.58,8.58,0,0,0,.48-3.14l2.17,1.45a30.66,30.66,0,0,1,.48,3.14,4.18,4.18,0,0,1-.84,1.33,3.22,3.22,0,0,0-.84,1.81,7.8,7.8,0,0,0,.72,2.17,3.23,3.23,0,0,0,.24-1.69c.16,0,.4-.16.72-.48a1.64,1.64,0,0,1,1.21-.48c.32,0,.4.16.24.48s-.08.48.24.48a2.06,2.06,0,0,0,1.33-.48,1.85,1.85,0,0,1,.84-.48,10.4,10.4,0,0,1-.24,1.69v1.45a4.87,4.87,0,0,1,1.45,2.89,14.67,14.67,0,0,1-.72,3.14q-1,3.14-1.21,4.1c0-1,.16-1.53.48-1.69v-1.45a.78.78,0,0,0-.72-.48l-1.21,3.62a1.89,1.89,0,0,0,1.21.24,2,2,0,0,0,1.69-1.21A2.44,2.44,0,0,0,415,176ZM255.78,277.58h-1.21v-.72h1.21Zm7.72,12.79-2.17-.48v-.72l2.17.48Zm16.4,1.21v-.72h-1.45v.72Zm.48-3.86V287h-1.21v.72Zm1.21,1.69v-.72h-1v.72Zm1.69.48v-.72h-1.45v.72Zm-.24,2.65v-.72h-1.21v.72Zm.24-3.86V288h-1v.72Zm2.17.48v-.72H284v.72Zm2.17,1.69v-.72l-2.9-.48v.72Zm-.48-8.68v-.72h-1v.72Zm1,7.24v-.72h-1.93v.72Zm.24,4.34V293l-2.17-.48v.72Zm2.17-2.17v-.72l-2.65-.48v.72Zm1.45-8.44v-.72h-1.21v.72Zm1.21,8.44v-.72h-1.69v.72Zm1.69-8v-.72h-2.41v.72Zm.48,8.44v-.72h-1.21v.72Zm0,2.41v-.72h-1.21v.72Zm1.69,0v-.72h-1.21v.72Zm6.75-2.9v-.72l-7-.48v.72Zm-.48,1.21v-.72l-6.51-.24v.72ZM299.44,295v-.72H297V295Zm5.55,1v-.72l-4.58-1V295Zm1.21-.48v-.72h-1v.72Zm1.45,3.62-1.93-1-.24.72,1.93,1Zm2.17-7v-.72h-2.17v.72Zm2.89-4.82v-.72h-3.62v.72Zm0,8.68v-.72h-2.89v.72Zm46.08.72a33.36,33.36,0,0,1-3.38-.24q-2.17-.24-2.65-.24a1.3,1.3,0,0,0-1,.6,1.32,1.32,0,0,1-1,.6,1.59,1.59,0,0,1-1-.36,1.48,1.48,0,0,0-.72-.36,13.22,13.22,0,0,0-5.55,1.21l-1-1a36.23,36.23,0,0,0-5.79,1.45,1.4,1.4,0,0,0,.48-1h-2.89a2.19,2.19,0,0,1-.24,1,2.09,2.09,0,0,0-1.45-.72c.48.48.64.8.48,1a14.1,14.1,0,0,0-3.38-.48c.8,0,1,.16.48.48h-1.21a4.19,4.19,0,0,0-2.89-.72h-6q-5.79.24-8.44.24a7.61,7.61,0,0,1,3,1.08,8.84,8.84,0,0,0,2.53,1.09,4,4,0,0,0,1.57-.36,3.65,3.65,0,0,1,1.33-.36c.32,0,.32.16,0,.48-.16.16-.08.24.24.24a12.94,12.94,0,0,0,4.1-.36,2.91,2.91,0,0,1,1-.36,3.51,3.51,0,0,0,1.21.72,49.82,49.82,0,0,0,8.44-.48c0-.81.08-1.29.24-1.45.16,0,.24.2.24.6s.24.6.72.6c.64,0,.88-.16.72-.48l.72,1a31.85,31.85,0,0,0,9.65-1.45c-.32.32-.08.48.72.48a10.26,10.26,0,0,0,4.82-1.45q0,.48,1.69-1.21.48,1.45,1.21,1.45a4,4,0,0,0,1.57-.6A4.64,4.64,0,0,1,358.78,296.64Zm-44.39-4.58v-.72H312v.72Zm1,3.62-1.69-.48v.48l1.45.48Zm2.89-27.5h-1.21v-.72h1.21Zm.24-55.24-.72,1.69-.48-.24.48-1.45Zm1.21-3.38-1,2.9-.72-.24,1-2.65Zm0,24.61V233H319v1.21Zm2.41,61.76v-.72h-2.41v.72Zm0-59.58-.24-.72-1,.48v.72Zm7,56.21v-.72h-6v.72Zm-4.58,3.38v-.72h-1.21v.72Zm1.69,0v-.72H325v.72Zm2.17-26.05v-.72h-2.89v.72Zm0,26.05v-.72h-1.21v.72ZM333,269.86v-.72l-4.1-.24v.72Zm-1.69,26.05v-.72h-2.41v.72Zm-1.21,1.21v-.72h-1.21v.72Zm1,7-.24.72-1.21-.72.24-.48Zm2.89-1h-2.41v-1h2.41Zm-1-7.24v-.72h-1v.72Zm1.93-107.35L333.46,190l-.48-.48,1.45-1.45Zm1.21,108.55v-.72h-2.89v.72Zm-.48-1.21v-.72H333.7v.72Zm4.1-3.86v-.72h-1.45v.72Zm1.45,11.1a2.78,2.78,0,0,0-1.93.48l1-1.21A7.5,7.5,0,0,0,341.17,303.15Zm-.72-12.54-.72-.48-.24.48.48.48Zm10.37,10.86a30.11,30.11,0,0,1-6.27.72q4.58-1.45,3.86-1.45A4.66,4.66,0,0,1,350.82,301.47Zm-2.89-5.31v-.72h-1.69v.72Zm.48-1.21v-.72h-1.69V295Zm1.21-4.58v-.72h-1.69v.72Zm6,10.13h-2.17v-.72h2.17Zm1.69-.72h-1.69v-.72h1.69Zm3.38-3.86h-3.14a3.59,3.59,0,0,1,2.65,1A2.43,2.43,0,0,1,360.71,295.92Zm4.1,1.21v-.72h-1v.72Zm2.65-2.89v-.72h-1.21v.72Zm.72-1.45v-.72h-1.45v.72Zm.24,2.17-.24-.72-1.45.48v.72Zm1.45-2.41v-.72h-1.45v.72Zm1-42.46h-1.21v-.72h1.21Zm3.86,6.51-1.21.48v-.48l1-.48Zm1.69,38.6-1.45,1-.24-.48,1.45-1Zm2.41-4.34v-.72h-1.45v.72Zm3.38,1.69h-1v-.72h1Zm4.34-11.1v-.72h-1.21v.72Zm0,7-.24-.48-1,.48v.48Zm3.14-8.44-.24-.48-2.65.72V281Zm-1.21,15.68-1.45.48v-.48l1.21-.48Zm8.68-63.2a5.59,5.59,0,0,0-4.1-3q-2.89-.6-5.31-1.33a4.86,4.86,0,0,0-.24,2.17A35.56,35.56,0,0,1,397.14,232.47Zm-8.44,50.18v-.72h-1.21v.72Zm9.41.48q-2.89.24-4.58,3.62a1,1,0,0,0-1-.48,3.67,3.67,0,0,0,.48,1.45A10.19,10.19,0,0,0,398.11,283.13Zm2.17-87.57-5.07,2.17v-.48l4.82-2.41Zm-2.17,38.11-2.41-1v.72l2.17.72Zm1,3.38-1.45-2.17-.48.48,1.45,1.93Zm-.72,55h-1v-.72h1Zm3.86-55c-1.45.81-2.09,1.45-1.93,1.93a6.36,6.36,0,0,0,.72.6,1.46,1.46,0,0,0,.72.36,9.32,9.32,0,0,1,.24-1.33A8.45,8.45,0,0,0,402.21,237.06Zm-.72-41.73h-1.21v-.72h1.21Zm1.69,85.4-1.93,1.93-.24-.48,1.93-1.93Zm0-112.41-.24-.48-1.45,1,.24.48Zm0,23.88-1.21,1-.48-.72,1.45-1Zm1.69-6.75h-1.69l-.72,1A3.27,3.27,0,0,0,404.86,185.43Zm.48,54.52a16.58,16.58,0,0,1-2.41-2.41,1.61,1.61,0,0,1-.24,2.17,9.47,9.47,0,0,0,1.09.84c.56.4.84.69.84.84A1.63,1.63,0,0,1,405.34,240Zm2.41-75.26a2.66,2.66,0,0,0-1.69-1,1.26,1.26,0,0,1-1.09-.48c-.24-.32-.44-.48-.6-.48v1.45a7.2,7.2,0,0,0-.24,1.21,2.8,2.8,0,0,0,.48-.72,2.75,2.75,0,0,1,.48-.72q.48,1.45-1.45,3.86Q407,167.34,407.75,164.69Zm-2.17,23.64h-1.45v-.72h1.45Zm1.93-1-1.21.72v-.72l1-.48Zm.48,90h-.72l-.48-1,.72-.24Zm1.21-109-.48-.48-1,1,.48.48Zm.48,8.44V175.3H409v1.45Zm2.41-6.51v-4.82a2.37,2.37,0,0,0-1.69-.48,2.35,2.35,0,0,1-.48,1.21,2.57,2.57,0,0,0-.48,1.45q0-.48.72.72v3.38C410.65,171.36,411.29,170.88,412.1,170.24Zm-.72,2.41-.24-.72-1.45.48v.72Zm.48,85.64h-.72v-1.21h.72Zm2.65-113.86-1,1h-2.17v-2.89l1.69-1.69Q413.54,141,414.51,144.42Zm-1.45,115.07h-.72l-.48-1,.72-.24Zm19.78-101.8q0,1.69-2.41,4.34l-2.89,2.41a29.35,29.35,0,0,1-2.17-2.9q-.72.49-3.62-.72a3.65,3.65,0,0,0,1.69-1.93q-4.34-1.2-6-7.48l-1.69,1.69-2.89-2.89q1.93-3.13,2.89-3.14l.72,1a19.72,19.72,0,0,1,1.21-3.86q2.89-4.34,7.24-4.34a16.83,16.83,0,0,1,2.29.72,10.29,10.29,0,0,0,3,.72,3.54,3.54,0,0,1-.24,2.17q2.89,2.89,2.89,4.58,0,1-2.89,6Q432.84,155.76,432.84,157.69ZM416,265.28l-.48,1.69-.48-.24.48-1.45Zm35.7-96q-3.38,2.41-10.37,6.75-1.93,1.69-5.31,4.58a2.44,2.44,0,0,1-1-.48Q438.63,174.58,451.66,169.27Zm1.69-6.27a3.58,3.58,0,0,1-.24,1.33,2.94,2.94,0,0,0-.24,1.09,3.32,3.32,0,0,0-2.41.48,4.81,4.81,0,0,1-1-1.45,6.56,6.56,0,0,1,.48-1.81,6.65,6.65,0,0,0,.48-1.81,8.63,8.63,0,0,1,2.89,0Z"/><path class="cls-1" d="M539.67,201.69q0,1.21-4.82,8.68a61.48,61.48,0,0,1-9.17,10.49q-5.79,5.43-10.13,6.88Q495,234,480.56,234q-8.93,0-12.06-4.1-1.93-2.89-5.55-8.2a7,7,0,0,1-2.17-2.05,5.93,5.93,0,0,1-1.21-3.74l2.17-2.41a2.19,2.19,0,0,0-1-.24,12.46,12.46,0,0,1,1.69-2.65,3.47,3.47,0,0,0,1.21-2.41,3.91,3.91,0,0,0-.48-1.69l1.45,1.21a9.71,9.71,0,0,0,1.93-2.05,25.11,25.11,0,0,1,1.93-2.29,9.23,9.23,0,0,1-.72-2.89q1.93,1.93,1.69,1.93a17.46,17.46,0,0,0,1.21-1.69,2,2,0,0,0,0-1.93q-6.51,1.93-10.86,9.41l-6.27,12.54a2,2,0,0,0,1.45.48q-1.69-.48-5.07,8.2a100.36,100.36,0,0,0-3.86,10.37q-5.31,18.82-5.79,26.29a13.94,13.94,0,0,0-.72,3.62v1.21a.76.76,0,0,0,.72.48L470.67,261a3.82,3.82,0,0,1-1.93,2.41l-15,5.79q-8.68,3.38-13.51,3.62c-.16,0-.4.16-.72.48v2.17c-.32.16-.08.24.72.24q4.1,0,16.4-5.31l-.72,1.21a1.28,1.28,0,0,0,1.45,1.45q2.17,0,2.17-.24a3.29,3.29,0,0,0,1.93,1.21,43.14,43.14,0,0,0,5.19-1.57,43.74,43.74,0,0,1,5.19-1.57,4.06,4.06,0,0,1,1.21.24,4.52,4.52,0,0,0,1.45.24,19,19,0,0,0,4-2.05,19.06,19.06,0,0,1,4-2.05,7.44,7.44,0,0,1,2.29.6,7.66,7.66,0,0,0,2.05.6q.72,0,10.25-3.74T509,259.83l-27,13.51q0,1,1.45,1L454,287.57q1.2.72,6.75-.48a3.69,3.69,0,0,1,.48,1.45q-8,1-7,1a4.17,4.17,0,0,1-1.69-.72,4.22,4.22,0,0,0-1.69-.72A8.24,8.24,0,0,0,447,289.5q-9.89,2.17-10.86,2.17a7.25,7.25,0,0,1-2.41-1.33,6.36,6.36,0,0,0-2.65-1.33,2.91,2.91,0,0,0-1.09.24,3.05,3.05,0,0,1-1.09.24q-4.59,0-8-5.55-2.66-4.59-5.31-9.41l1,.72q0-1.45-1.93-6.27a1.87,1.87,0,0,0-.48,2.17,22.17,22.17,0,0,1,1.21,2.89,6.7,6.7,0,0,0-.36-1.33q-.36-1.09-1.09-1.09a.43.43,0,0,0-.48.48,7.2,7.2,0,0,1-.24-1.45,25.3,25.3,0,0,0,1.69-7.72q.72-6.27,1-7.72c0-.48-.4-.72-1.21-.72q1.68-7.47,2.89-11.34a60.39,60.39,0,0,1,6-12.06,46.56,46.56,0,0,1,1.45-7.24q5.55-11.58,16.65-35,2.41-5.79,10.13-17.61a50.31,50.31,0,0,1,9.89-8.2,33,33,0,0,0,5.55-1.93q4.34-3.38,8.93-6.51a15.63,15.63,0,0,1,8.2-2.17,9,9,0,0,1,4.82,1.21,8.42,8.42,0,0,0,2.77,2.05,53,53,0,0,0,5.91,2.53q1.45.72,5.55,3.38t4.82,2.65q5.07,0,4.1.24,1.2.72,1,.72c.48,0,.88-.32,1.21-1q1.93,2.41,5.31,6.51,1.2,2.41,2.17,4.58,2.41,4.34,4.58,4.34c.64,0,1-.4,1-1.21a.64.64,0,0,0,.72.72l1.21-1v4.58a4.56,4.56,0,0,0,1.93,3.38q0,.72-1.21,1.45.72,2.17,2.9,7.48-.72,1.93,1,6.27a1.71,1.71,0,0,0,1.93-1.93q0-.24-2.65-9.65a2.35,2.35,0,0,1,1.21-.48Q539.67,200.73,539.67,201.69ZM425.08,263.45v-1.21h-.72v1.21Zm20.75-38.84a2.09,2.09,0,0,0-1.69,1q-11.34,26.78-11.34,43.18a14.17,14.17,0,0,0,.48,2.41,2.81,2.81,0,0,1,1.93.48q.48-3.38,2.89-17.85a26.37,26.37,0,0,1-.24-4.1,32.59,32.59,0,0,1,2.65-8L443.9,234a16.41,16.41,0,0,1-.24-3.14A54.33,54.33,0,0,0,445.83,224.61Zm-10.37,49a3.59,3.59,0,0,1-1,2.65q-.72-.48-.72-2.65ZM471.88,172.5q-6.51,1.45-15.2,14.23a91.78,91.78,0,0,0-10.61,19.78q1.93-4.34,8.68-13.27a3.33,3.33,0,0,1-.24-1.45Q463.2,182.39,471.88,172.5Zm13.51,31.84a140.79,140.79,0,0,1-16.64,0,28.3,28.3,0,0,0-2.41,2.89,2.88,2.88,0,0,1,.84.24,2.92,2.92,0,0,0,1.09.24q3.86,0,4.34-1.69A64.39,64.39,0,0,0,485.39,204.35Zm-12.79-.72a2.64,2.64,0,0,1-1-1.69c-.81.81-1.37,1.21-1.69,1.21A7,7,0,0,0,472.6,203.62Zm32.32-10.13q0-.72-1.57-2.53c-1-1.21-1.81-1.81-2.29-1.81q-.49,0-4.95.6a54.53,54.53,0,0,1-6.63.6q.48,1.69,1.45,4.58c1.12.16,1.69.72,1.69,1.69q-1.93.49-2.89-2.17l-1.45-3.86a48.4,48.4,0,0,0-16.89,9.17c.8,1.77,1.45,2.65,1.93,2.65A109.37,109.37,0,0,0,493.59,200c.48-.8.64-1.21.48-1.21a3.26,3.26,0,0,0,2.41,1c1.61,0,2.41-.48,2.41-1.45a19.79,19.79,0,0,0,2.65-.24Q504.93,196.63,504.93,193.49Zm27.74-27.26-.72,1.21-.48-.24.48-1.21Z"/><path class="cls-1" d="M710.44,218a8.65,8.65,0,0,0-6.27,1.93,24.34,24.34,0,0,1-1.45,2.41q-2.17,1.93-4.58,3.86-2.66,2.66-2.17,4.82a168.58,168.58,0,0,1-13.51,12.79c-.16.16-.08.4.24.72a19.58,19.58,0,0,0,5.07-3.38l1.69,1.69c0,.64-.08.89-.24.72h1q2.65,0,7.24-4.58l-4.1,3.86a3.19,3.19,0,0,0,1.69.24q2.17,0,7.72-3.38v1.69a48.82,48.82,0,0,1-3.38,4.1q-2.66,1-6,4.82c.64.32,1.69.08,3.14-.72q-.24.24-1.81,1.45a28.55,28.55,0,0,0-2.77,2.41l1.45,1.45q-3.38-.48-3.38,1.93v1.69a12.69,12.69,0,0,0-3.14,1.45q0,.72,1.69.72-5.06,3.62-11.1,7.48l-1.21,1.69a8.33,8.33,0,0,0,.36,1.45,4.11,4.11,0,0,1,.12,2.17q-3.14,2.66-6.51,5.31-3.86,3.38-7,3.62a31.57,31.57,0,0,0-3.86.24q-1.93.24-1.93,2.65h-6.51c-.48.16-.81,0-1-.36s-.4-.6-.72-.6q-1.45,0-9.17,2.89a34.92,34.92,0,0,1-10.61,1.69,54.91,54.91,0,0,1-27-7.24,11.23,11.23,0,0,0-1-1.45q-4.83-2.17-4.1-2.17a1.92,1.92,0,0,0-1.21.24,2.79,2.79,0,0,0,.48-.72h-.72c-.16,0-.6-.4-1.33-1.21a2.4,2.4,0,0,0-2.29-1,21.48,21.48,0,0,0,1.93,2.89,62.11,62.11,0,0,1-5.31-5.55,11.59,11.59,0,0,0-.72-3.38q-2.17-4.1-5.79-12.79-1.21.24-1,1.21c0,1,.08,1.37.24,1.21a2.8,2.8,0,0,0-1-1.93l-.72.72q-1,8.68-5.79,27,.48.72-2.17.72a4.48,4.48,0,0,1-1.81-.84,4.51,4.51,0,0,0-2.29-.84,2.65,2.65,0,0,1,1-1.69,8,8,0,0,0-2.65-1.69q-2.41,3.38-7.48,10.86l-1.93-1.69a19.31,19.31,0,0,0,1.69-2.89c0-.64-.64-1.61-1.93-2.9q-1,.49-3.86,5.07-1.45-1.93-3.62-5.07-.24.24-5.07,4.1-2.41-4.1-2.41-5.79a3.66,3.66,0,0,1,1.45-2.89,5.24,5.24,0,0,0-1-1.21h-1.21a.64.64,0,0,0-.72.72V277.1a12.84,12.84,0,0,0,2.65-3.38q1.93-6.51,2.41-20.5a9.79,9.79,0,0,0,1-2.89,18.72,18.72,0,0,0,0-4.58,25.05,25.05,0,0,0-.72-5.55l1.93-1.93q.48-8.2,3.38-55.48,1.93-34,5.31-55,.72-4.1,5.07-17.61,0-.24.24,5.31.48,6.51.48,17.61.48,0,1.45-1.45,1-8.92,5.31-25.09a14.64,14.64,0,0,1,4.1,3.14q1-.72,3.86-.72a4.12,4.12,0,0,1,1,.24,3.91,3.91,0,0,0,1.21.24c.48,0,.72-.16.72-.48s.24-.48.72-.48a1.4,1.4,0,0,1,1,.48,1.62,1.62,0,0,0,1.21.48q2.65,0,2.89-2.89c.16.32.68,1.21,1.57,2.65a7.41,7.41,0,0,1,1.33,3.14q0,6,.72,6.75a51.55,51.55,0,0,1-.24,8.2,7.68,7.68,0,0,0,.6,2.05,7.9,7.9,0,0,1,.6,2.05l-5.55,76.71q0,4.83,4.34,8.93a34.92,34.92,0,0,0,3.86,5.55q16.16-14.23,31.84-45.83,1.21,1,3.62,2.65a20.32,20.32,0,0,1-1.93,5.79v1.69q1.45.24,2.41-1.69a18.73,18.73,0,0,1,1.93-3.38,2.31,2.31,0,0,0,1.21.48q-.24,3.86-.24,4.58a13.94,13.94,0,0,0,2.65-3.62q-3.62,8.45-7.24,16.65a90.94,90.94,0,0,1-10.86,18.57,53.83,53.83,0,0,1-4.46,5.43q-3.74,4.22-3.74,4.7,0-.72,2.41,3.86-1-1-2.65-2.9a9,9,0,0,0-2.65,3.62l1.21.48c.48,0-.32.08-2.41.24q-1.21.49-.72,1-1.45.72-3.62,3.86a13.7,13.7,0,0,0,3.5,2.77,46,46,0,0,0,6.39,1.81q14.71,3.14,13.51,3.14.48,0,7.12-.48t7.12-.48c.48,0,.68.16.6.48s0,.48.36.48q8,0,35.7-19.78-3.62,3.14-14.47,10.86a1.49,1.49,0,0,0,1.69,1.69q.24,0,16.77-10.25t19.42-10.25c.32,0,.48.08.48.24s.24.24.72.24a22,22,0,0,0,3.74-1.21,16.79,16.79,0,0,1,4.22-1.21Q706.33,216.79,710.44,218ZM561.6,119.58h-1l-1,6.75h.72Zm21,141.36h-1v-1.21h1Zm2.41,0-.48-2.41h-1l.48,2.41Zm3.38-51.38-2.17,2.17-.48-.48,2.17-2.17ZM591,118.37h-1v-1.21h1Zm5.79,95.29h-.72l-.48-1.69.72-.24ZM600,233.44l-.72-.48-3.14,3.14.48.72Zm5.31-6.51-.48-.24-4.58,5.07.48.48Zm0,50.42-2.41-1-.24.72,2.41,1Zm4.58-98.18L606.22,185l-.72-.48,3.62-5.79Zm-1.69,55.24h-1.45v-1h1.45Zm2.65.24-.24.72-1.69-.72v-.72Zm2.41,1-.24.72-1.69-.72v-.72Zm20.26,49.21q-5.31-.72-10.61-1.21A26.52,26.52,0,0,1,612.25,280h1.69q.48,0,9,1.93t9,1.93C633,283.86,633.48,284.18,633.48,284.82ZM615.87,180.61l-1.21,1.93-.72-.48,1.21-1.93Zm1-4.1-.72,1.93-.72-.24.72-1.69ZM618.77,210l-.72-.48-1,1.69.48.48Zm19.3-25.81q-2.66,5.79-8.2,16.89Q626,206.42,618.77,217Zm-10.86,11.58h-.72l-1.93,4.58.72.48Zm64.65,33.29-.24-.72-3.14,1.69v.72Zm20.5-11.34h-1.45V217h1.45Z"/><path class="cls-1" d="M918.74,210.28q0,1.21-4.82,8.68a61.56,61.56,0,0,1-9.17,10.49q-5.79,5.43-10.13,6.88-20.51,6.28-35,6.27-8.93,0-12.06-4.1-1.93-2.89-5.55-8.2a7,7,0,0,1-2.17-2.05,5.93,5.93,0,0,1-1.21-3.74l2.17-2.41a2.19,2.19,0,0,0-1-.24,12.45,12.45,0,0,1,1.69-2.65,3.47,3.47,0,0,0,1.21-2.41,3.9,3.9,0,0,0-.48-1.69l1.45,1.21a9.71,9.71,0,0,0,1.93-2.05,25,25,0,0,1,1.93-2.29,9.23,9.23,0,0,1-.72-2.89q1.93,1.93,1.69,1.93a17.34,17.34,0,0,0,1.21-1.69,2,2,0,0,0,0-1.93q-6.51,1.93-10.86,9.41l-6.27,12.54a2,2,0,0,0,1.45.48q-1.69-.48-5.07,8.2a100.29,100.29,0,0,0-3.86,10.37q-5.31,18.82-5.79,26.29a14,14,0,0,0-.72,3.62v1.21a.76.76,0,0,0,.72.48l30.4-10.37a3.82,3.82,0,0,1-1.93,2.41l-15,5.79q-8.68,3.38-13.51,3.62c-.16,0-.4.16-.72.48v2.17c-.32.16-.08.24.72.24q4.1,0,16.4-5.31l-.72,1.21a1.28,1.28,0,0,0,1.45,1.45q2.17,0,2.17-.24a3.29,3.29,0,0,0,1.93,1.21,43.08,43.08,0,0,0,5.19-1.57,43.7,43.7,0,0,1,5.19-1.57,4.06,4.06,0,0,1,1.21.24,4.51,4.51,0,0,0,1.45.24,19.05,19.05,0,0,0,4-2.05,19.07,19.07,0,0,1,4-2.05,7.43,7.43,0,0,1,2.29.6,7.67,7.67,0,0,0,2.05.6q.72,0,10.25-3.74t11.94-4.95l-27,13.51q0,1,1.45,1L833.1,296.16q1.2.72,6.75-.48a3.7,3.7,0,0,1,.48,1.45q-8,1-7,1a4.17,4.17,0,0,1-1.69-.72,4.22,4.22,0,0,0-1.69-.72,8.23,8.23,0,0,0-3.86,1.45q-9.89,2.17-10.86,2.17a7.25,7.25,0,0,1-2.41-1.33,6.36,6.36,0,0,0-2.65-1.33,2.91,2.91,0,0,0-1.09.24,3,3,0,0,1-1.09.24q-4.58,0-8-5.55-2.66-4.59-5.31-9.41l1,.72q0-1.45-1.93-6.27a1.87,1.87,0,0,0-.48,2.17,22.2,22.2,0,0,1,1.21,2.89,6.68,6.68,0,0,0-.36-1.33q-.36-1.09-1.09-1.09a.43.43,0,0,0-.48.48,7.27,7.27,0,0,1-.24-1.45,25.3,25.3,0,0,0,1.69-7.72q.72-6.27,1-7.72c0-.48-.4-.72-1.21-.72q1.68-7.47,2.89-11.34a60.35,60.35,0,0,1,6-12.06,46.57,46.57,0,0,1,1.45-7.24q5.55-11.58,16.64-35,2.41-5.79,10.13-17.61a50.32,50.32,0,0,1,9.89-8.2,33,33,0,0,0,5.55-1.93q4.34-3.38,8.93-6.51a15.63,15.63,0,0,1,8.2-2.17,9,9,0,0,1,4.82,1.21,8.42,8.42,0,0,0,2.77,2.05,53,53,0,0,0,5.91,2.53q1.45.72,5.55,3.38t4.82,2.65q5.07,0,4.1.24c.8.48,1.12.72,1,.72.48,0,.88-.32,1.21-1q1.93,2.41,5.31,6.51,1.2,2.41,2.17,4.58,2.41,4.34,4.58,4.34c.64,0,1-.4,1-1.21a.64.64,0,0,0,.72.72l1.21-1v4.58a4.56,4.56,0,0,0,1.93,3.38q0,.72-1.21,1.45.72,2.17,2.89,7.48-.72,1.93,1,6.27a1.71,1.71,0,0,0,1.93-1.93q0-.24-2.65-9.65a2.35,2.35,0,0,1,1.21-.48Q918.74,209.32,918.74,210.28ZM804.16,272v-1.21h-.72V272ZM824.9,233.2a2.09,2.09,0,0,0-1.69,1q-11.34,26.78-11.34,43.18a14.17,14.17,0,0,0,.48,2.41,2.8,2.8,0,0,1,1.93.48q.48-3.38,2.89-17.85a26.42,26.42,0,0,1-.24-4.1,32.56,32.56,0,0,1,2.65-8l3.38-7.72a16.38,16.38,0,0,1-.24-3.14A54.26,54.26,0,0,0,824.9,233.2Zm-10.37,49a3.59,3.59,0,0,1-1,2.65q-.72-.48-.72-2.65ZM851,181.09q-6.51,1.45-15.2,14.23a91.81,91.81,0,0,0-10.61,19.78q1.93-4.34,8.68-13.27a3.33,3.33,0,0,1-.24-1.45Q842.27,191,851,181.09Zm13.51,31.84a140.79,140.79,0,0,1-16.64,0,28.39,28.39,0,0,0-2.41,2.89,2.88,2.88,0,0,1,.84.24,2.92,2.92,0,0,0,1.09.24q3.86,0,4.34-1.69A64.39,64.39,0,0,0,864.46,212.93Zm-12.79-.72a2.63,2.63,0,0,1-1-1.69c-.81.81-1.37,1.21-1.69,1.21A7,7,0,0,0,851.68,212.21ZM884,202.08q0-.72-1.57-2.53c-1-1.21-1.81-1.81-2.29-1.81q-.49,0-4.95.6a54.53,54.53,0,0,1-6.63.6q.48,1.69,1.45,4.58c1.12.16,1.69.72,1.69,1.69q-1.93.49-2.89-2.17l-1.45-3.86a48.39,48.39,0,0,0-16.89,9.17c.8,1.77,1.45,2.65,1.93,2.65a109.37,109.37,0,0,0,20.26-2.41c.48-.8.64-1.21.48-1.21a3.27,3.27,0,0,0,2.41,1c1.61,0,2.41-.48,2.41-1.45a19.79,19.79,0,0,0,2.65-.24Q884,205.22,884,202.08Zm27.74-27.26L911,176l-.48-.24.48-1.21Z"/><path class="cls-1" d="M1169.86,258.53q-5.55,3.14-16.16,8.68v2.17q1.69,1.45,2.17,1.45a37.28,37.28,0,0,0,3.86-.48,34.37,34.37,0,0,1,4.82-.48q-3.38,1.93-9.41,4.82l-5.79,1.45a11,11,0,0,0-6,3.62h.48a1.39,1.39,0,0,0,1,.24q2.17,0,15-5.79l1.45.48-34.5,14.23.48.48q5.3,0,21.71-1.69a14,14,0,0,0,1.45,1.21L1110,300a9.76,9.76,0,0,0,4.82,1.21q5.55,0,35-8.2a38.79,38.79,0,0,0,8.93-3.62,2.35,2.35,0,0,0,.48,1.69,2.31,2.31,0,0,1,1.21-.48q-15,4.82-44.87,12.78-11.1,2.65-29.19,7.24c-.81.48-1.21,1-1.21,1.45,0-.16-.24-.48-.72-1a10.6,10.6,0,0,0-2.53,4.95q-.85,3.26-1.81,6.15a1.39,1.39,0,0,0,1.69-.24q-.72.48-1.93,1.45-14.72,40-27,61-1.21,1.69-7.24,6.27a4.23,4.23,0,0,1-1.21-.48,3.86,3.86,0,0,0-1.69-.48q-.72,0-3.26,2.17a22.92,22.92,0,0,1-3.5,2.65q-7,3.13-9.65,3.14h-2.65a.68.68,0,0,1,.24-.48V396q0-2.17-3.38-3.62l-1.69.72a7.6,7.6,0,0,0-.24-4.34q-2.17-5.31-2.17-6.27a9,9,0,0,1,1-1.93,47.23,47.23,0,0,0,.48-8.68q-.24-2.66,1.21-16.16,0,1.2,1.69,1.21l.48-1.93q0-6.76,6-16.65,4.58-6.28,9.17-12.79,2.17-3.38,13.75-12.79.48-.24,1.21-2.41-.24-.72-.72-.72a1.55,1.55,0,0,0,1.45-1,1.63,1.63,0,0,0-1.21-.48q-1.69,0-6.75,2.65a2.35,2.35,0,0,0,1.69.48q-4.34,1-12.54,5.79a72.19,72.19,0,0,0-17.13,14.47,44.17,44.17,0,0,0-8.68,18.33q-3.62,15.2-3.62,17.37a14.15,14.15,0,0,0,1,5.31q.48,1.2-1,4.34a3.21,3.21,0,0,1-2.65-1.21,34.76,34.76,0,0,1-2.41-5.79q-1.2-20.51-1.21-19.06,0-11.34,8-26.78,7.24-13.27,15-20.5a67.05,67.05,0,0,1,6.51-6q2.65-1.69,7.48-4.34a11.37,11.37,0,0,1,1.93-3.62,10.66,10.66,0,0,1,3.86-3.14q6.27-1.93,18.58-6.27a4.54,4.54,0,0,1,.24-2.41,10.28,10.28,0,0,0,.48-2.41,1.65,1.65,0,0,0-.48-1.21,57.45,57.45,0,0,1-10.13,3.14,6.85,6.85,0,0,0-1.45,1.21,2.64,2.64,0,0,1-1.69,1,2,2,0,0,1-1.09-.24,2,2,0,0,0-1.09-.24q-1.21,0-12.79,4.82,4.82-1.93,14-6.27a18.66,18.66,0,0,1,3.38-2.41l10.86-1.45a26.49,26.49,0,0,0,1.69-4.34l-.48-3.62a3,3,0,0,0-1,2.17l-1-.72c-.32.16-.48.57-.48,1.21-.32,0-.81-.32-1.45-1-.32-.16-.64,0-1,.48q0,1.45,1.69,1.45-1.93.24-5.91.6t-6.15.6q1.21.49,3.62,1.21-13-3.13-15.2-3.14a19.09,19.09,0,0,0-3,.48,18.74,18.74,0,0,1-3,.48q-5.31,0-11.94-4.46t-9.29-8.81a33.79,33.79,0,0,0-3.38-8.2,2.31,2.31,0,0,0,1.21.48,2.78,2.78,0,0,0,1-1.93,30.67,30.67,0,0,0-1.69-5.31,30.23,30.23,0,0,1-1.69-5.31V230.3a97.8,97.8,0,0,0,4.82-10.37q-1.93,13-1.93,12.3a8,8,0,0,0,.72,3.14,12.6,12.6,0,0,0,.24-3.14q0-1,2.29-6.27a39.88,39.88,0,0,1,3.74-7.24,35.4,35.4,0,0,0,4.82-3.86,53.4,53.4,0,0,1,8.2-9.89q7.72-8,9.89-10.37-2.66,3.38-5.55,6.51-3.38,4.83-2.89,7.24,6-7.47,19.54-21.23a136.61,136.61,0,0,0-13.51,15.68.76.76,0,0,0,.72.48l18.09-17.37q-.49,1.21-3.86,4.82h2.17a5.11,5.11,0,0,0-2.89,3.38q9.16-7.47,19.3-7.48a18.84,18.84,0,0,1,8.44,1.69l1.45-2.89a8.58,8.58,0,0,1-.48,3.14,66.66,66.66,0,0,1,12.3,6.51l2.17-.72v-2.41a8.42,8.42,0,0,0-1.93-1.45c-.48,0-.72.4-.72,1.21q-.49-1.45-3.5-1.81a10.84,10.84,0,0,1-3.74-.84h3.14q8-.24,11.82,7.48-1,1-1.93-.24l-1.45,1.45a12.16,12.16,0,0,0,3.62,3.14,10.42,10.42,0,0,1,1.21-2.17q.24,3.38-1,4.34,0,1.21,2.41,2.41a6,6,0,0,1,1.45-3.38,20.28,20.28,0,0,0,1.93,3.38h1.45a81.47,81.47,0,0,1,4.1-7.48q1.2,1.69.48,2.89l-1,1.93v6.27c.64.64,1,1,1.21,1a2,2,0,0,0,1.45-.48c.32-.32.56-.48.72-.48a16.85,16.85,0,0,1,1.69,3.62v2.65a20.21,20.21,0,0,1,.24,2.41q0,7.48-6.75,20.75a11.39,11.39,0,0,0-1.21,7q-1.45,5.31-4.1,16.4a11.89,11.89,0,0,0,5.79,1.45q-1,0,6.75-1.69a5.28,5.28,0,0,1-.24,1.33,5.4,5.4,0,0,0-.24,1.09q1,1,1.45,1a8.8,8.8,0,0,0,2.29-.48,8.91,8.91,0,0,1,2.29-.48,14.88,14.88,0,0,1,2.17.24,14.35,14.35,0,0,0,2.17.24,21.22,21.22,0,0,0,7.48-1.69,6.1,6.1,0,0,0-3.62,2.41,3.58,3.58,0,0,0,2.65,1q1.68,0,5.79-2.89c0,.81.56,1.21,1.69,1.21a36,36,0,0,0,4.94-1.09,44.77,44.77,0,0,1,4.7-1.09,2,2,0,0,1,1.08.24,2,2,0,0,0,1.09.24,23.37,23.37,0,0,0,15.68-5.79,13.87,13.87,0,0,1,2.41,2.41,20.06,20.06,0,0,0,2.89-1.45Zm-159.94,75.75-1-.24-.72,1.45,1,.24Zm35.46-32.32q-11.34,5.07-14,6.75a38.83,38.83,0,0,0-12.79,12.3,59.52,59.52,0,0,0-4.58,4.58,51.51,51.51,0,0,0-3.38,7.24q1.93-2.41,5.31-7A79.23,79.23,0,0,1,1027.29,314a57,57,0,0,0,7.24-4.82,19,19,0,0,1,5.79-4Q1044.42,303.15,1045.39,301.95ZM1023,289.16l-4.34,3.86-.48-1,4.34-3.62ZM1021,338.62q0,4.34-1.21,4.34c-.16,0-.32-.16-.48-.48l1-.48A18,18,0,0,1,1021,338.62Zm14.23,66.58-2.17,1.45a3.56,3.56,0,0,0,.72,1.21,113.94,113.94,0,0,0-11.58,2.89q8-6.28,11.34-6.27Zm-4.82-120.62-6.75,4.34-.24-1,6.51-4.1Zm23.88,35.7h-1q-3.86,1.45-5.07,3.14-.72,2.41-2.17,6.27-1.45,2.9-4.1,8.93a.78.78,0,0,1-.24-1q1.93-4.83,5.31-14.47-9.89,3.62-19.78,19.54-1.45,2.17-1.93,7-.24.72-.84,2.65a10.85,10.85,0,0,0-.6,2.65,8.41,8.41,0,0,0,.6,2.41,8.47,8.47,0,0,1,.6,2.41q2.17-5.31,6.51-13.75,0,.72-3.14,9.41a25.82,25.82,0,0,0-1.93,4.58,66.57,66.57,0,0,0-1.45,14,19.49,19.49,0,0,0,.72,6.27h2.41q2.65,0,3.62-1.69,1.2-2.89,2.41-5.55c-.81,0-1.21-.32-1.21-1,.48-.32.8-.4,1-.24.64.64,1.12,1,1.45,1a1.63,1.63,0,0,1-.48-1.21,8.21,8.21,0,0,1,1.33-1.93,6.45,6.45,0,0,0,1.33-4.1,1.39,1.39,0,0,1-1-.48,8.66,8.66,0,0,0,3.86-4.82q2.65-5.55,2.65-5.79,3.38-5.07,4.82-14h-1.69Q1049.25,333.55,1054.31,320.28Zm-26.05,7.24-2.65,3.14-.72-.48,2.65-3.14Zm1.21-83.95-1-.24-.72,1.45,1,.24Zm57.17-46.32q0-2.89-4.82-4.58-6-2.17-7-3.14-1.21,4.59-4.1,13a15.75,15.75,0,0,1,1-6,56.33,56.33,0,0,0,1.69-7H1069q-13.27-.24-27.5,20l-3.86,5.79q-9.65,15-9.65,22a2.31,2.31,0,0,0,.72,1.69c.48.48.72.81.72,1a22.67,22.67,0,0,1,2.89-5.31l1,1c-1.29.16-1.93.77-1.93,1.81a7.44,7.44,0,0,1-.48,2.77c.16.16.72.64,1.69,1.45a4.2,4.2,0,0,0,2.17,1.21h1.69q1-2.41,2.65-6.51a1,1,0,0,1,1-.48,1.65,1.65,0,0,1,1.21.48q-1,2.41-2.89,7h8.68q5.55,0,18.57-6.51a3.67,3.67,0,0,1,.48-1.45,1.65,1.65,0,0,1,.48,1.21,5.54,5.54,0,0,0,1.45-4.1c.16,0-.24.57-1.21,1.69l-1-1q1.45-4.34,2.65-15.2a.64.64,0,0,1-.72.72q-.49-2.65.72-7.72.72-3.86,1.69-7.72l.72.72a63.88,63.88,0,0,0-1.93,13.51q2.17-16.65,8-20.75.72,1.93,1.69,4.58a6,6,0,0,0,2.05-2.17,9.33,9.33,0,0,1,2.05-2.41,12.07,12.07,0,0,1,.72,4.58Q1086.63,198.22,1086.64,197.25Zm-54,7.48a5.9,5.9,0,0,1-.72-1.45,18.7,18.7,0,0,1-2.17,3.14Q1030.67,206.42,1032.6,204.73Zm3.86,43.18v-1.69q-1.45-1-6.75-2.17a7.81,7.81,0,0,1,.72,3.86h6Zm-3.62,159.21-1-1-.48.48.72,1Zm31.84-163.8v-2.17l-1.69,1a14.87,14.87,0,0,0-5.55,1.45,6.88,6.88,0,0,1-1.21,1.45,69.61,69.61,0,0,1-11.34,1.21,35.29,35.29,0,0,1-6.27-.48q-1.45,2.66-1.21,3.38h7.48q5.07,0,14.47-3.14A26.63,26.63,0,0,1,1064.69,243.33Zm-24.36,100.59-.72,1.69-1-.48.72-1.45Zm.48-2.17-.72,1.45-.72-.24.72-1.45Zm4.58-146.67-.72-.72-1.93,1.93.72.72ZM1048,407.61a3.29,3.29,0,0,1-2.41,1,1.35,1.35,0,0,1-1.33-.72,13.45,13.45,0,0,0-.84-1.45c.16,0,.36.16.6.48a1.41,1.41,0,0,0,1.21.48,7.43,7.43,0,0,1,1.81.24Zm6.75-90.94c.16-.32,0-.89-.48-1.69a17.09,17.09,0,0,0-4.82,4.1Q1053.83,317.87,1054.8,316.66ZM1092.19,196a11.5,11.5,0,0,0-.72-3.14q-.72,1-.72,3.86A3.07,3.07,0,0,1,1092.19,196Zm14.47,99.15v-1H1105v1Zm7.72-69.72-1.93,2.41-1-.48,1.93-2.65Zm1-13.75-1.69.72v-.72l1.21-.72Z"/><path class="cls-1" d="M1205.32,202.56q0,3.14-2.65,9.65-1.21,3.38-3.14,9.89a99.17,99.17,0,0,0-6.27,8.2q1.93-3.86,1.69-4.34-1.45,2.17-4.1,6.75a32.53,32.53,0,0,0-3.38,3.38q-1,2.17-3.14,6a50.12,50.12,0,0,1-10.61,11.1q-10.13,7.48-13.51,7.48a5.72,5.72,0,0,1-1.57-.36,5.74,5.74,0,0,0-1.57-.36c-.32,0-1.69.2-4.1.6s-3.78.6-4.1.6q-5.55,0-11.82-5.79l-3.62-.72a6.5,6.5,0,0,0,0,3.62q-1.93-2.41-5.07-6.27-.24-1-1-3.38a3.6,3.6,0,0,1-1-.72q-.49-2.41-1.21-7.24a3.71,3.71,0,0,0,1-1.69,31.28,31.28,0,0,1-2.41-7.24q.48-.48,0-9.89a100.35,100.35,0,0,1,6.75-26.54q2.17-6,8.68-12.79t10.61-7.72q.72,0,7-2.89a43.35,43.35,0,0,0-20.26,15.92c-.16.16-.08.4.24.72l1-.72a20.6,20.6,0,0,0-3.86,6.27l.72.48q5.79-8,18.58-16.89c0-.16-1,.16-3.14,1q11.82-7,18.33-6.75c-.16,0-.4.16-.72.48a1.62,1.62,0,0,0,1.21.48q.48,0,2.77-.36a27.83,27.83,0,0,1,2.77-.36,7.59,7.59,0,0,1,2.41,1.21,7.43,7.43,0,0,0,2.41,1.21c.48,0,.68-.08.6-.24s0-.24.36-.24a1.05,1.05,0,0,1,.84.48,6.37,6.37,0,0,0,.6.72q.24.24,5.55,6a14.78,14.78,0,0,0,3.62,4.34l.72-.72q-1.21-.48-1-1.45a1.23,1.23,0,0,0-.48-1.45,6.67,6.67,0,0,1,4.34,1.21q1.2-1.2,1.21-1.69a14.42,14.42,0,0,0,2.89,4.34q1.2,1.21,3.86,9.41a19.35,19.35,0,0,0,.24,2.41c.16.48.72,1,1.69,1.45A6.79,6.79,0,0,1,1205.32,202.56ZM1142.84,183l-2.41,2.41-.24-.48,2.17-2.17Zm2.89-1.93-2.41,1.93-.24-.72,2.17-1.69Zm29.19,17.61a20.69,20.69,0,0,1-2.17-4.1q-2.41,1.69-7.72,6.27a8,8,0,0,1,1.45-2.89,69.53,69.53,0,0,0-12.3,23.4c-.48-.64-.81-1-1-1q-1.45,0-2.65,5.07a30,30,0,0,0-1,5.55,37.84,37.84,0,0,0,1.69,9.65q7.24-2.17,14.11-11.34t6.63-15.68c.48.32.88,0,1.21-1l.48-1.45q-1.45-.48-3.14-1.21a6.7,6.7,0,0,0,.24-1.45,2.32,2.32,0,0,0-2.05-2.41q-2.05-.48-4-1l4.58-.24a22.54,22.54,0,0,1,2.65,1.69,10,10,0,0,0,.48-1.21,1.89,1.89,0,0,1-1.21-.24q1-1,.72-1.45-.72-.48-1.93-1.45a7.12,7.12,0,0,0,3.62-2.41,12.07,12.07,0,0,0-1.45-1.69,6.78,6.78,0,0,1,1.45.24A7,7,0,0,0,1174.93,198.7Zm-16.4-26.78h-1v-.72h1Zm8,.24q-1.93.49-8.2,2.65H1160Q1160.93,175.06,1166.48,172.17Zm-5.55-1.21h-1v-.72h1Zm8.2,39.56h-1v-.72h1Zm32.81-30.15h-.72v-1.69h.72Z"/><path class="cls-1" d="M1386,239.47q-7.48,5.31-22.92,16.4a2.08,2.08,0,0,0,1.45.72q1.45,0,5.31-2.65c-.48.64-.57,1.13-.24,1.45q1.2-.48,3.38-1.45a29.72,29.72,0,0,1-5.31,3.38l-1.45,2.17a104.53,104.53,0,0,0-11.34,6.27c-.16.16-.08.4.24.72a185.57,185.57,0,0,0,21.23-12.54q-1.93,2.17-5.55,6-2.41,1.21-7.72,4.34-3.62,3.62-10.86,9.65a64.13,64.13,0,0,1-8.93,3.86q-.49.72-1.45,1.93-1.93.72-8.93,4.34-5.79,2.89-6.51,2.89a3.21,3.21,0,0,1-1.57-.48,3.18,3.18,0,0,0-1.57-.48q-.72,0-10,1.57t-10,1.57q.24,0-3.62-.36t-6.51-.36a23.84,23.84,0,0,0,3.62,2.17q-6,0-7-.48-4.1-1.93-14.47-9.41a20,20,0,0,1-1.33-1.81q-1.09-1.57-1.81-1.57l-5.07.72a9.75,9.75,0,0,0-1.45,1.21l-1.21-1a1.18,1.18,0,0,0-.24.84c0,.4-.24.6-.72.6h-1.69a4.05,4.05,0,0,0-1.21-.24,26.81,26.81,0,0,0,5.07-1.69,13.51,13.51,0,0,1,5.07-1.21.64.64,0,0,0,.72-.72q0-1.45-3.38-4.22t-4.1-2.77a6,6,0,0,0-2.41,1,6,6,0,0,1-2.41,1,127.8,127.8,0,0,0-17.37,1.69,1.81,1.81,0,0,0,.48.84,2.09,2.09,0,0,1,.48,1.33q-2.17-2.65-4.34-2.65c-.81,0-.89.32-.24,1a28.6,28.6,0,0,0-5.79-1.93,1.52,1.52,0,0,1-.72.36,1.55,1.55,0,0,0-.72.36q4.82,3.86,7.72,3.86h5.55q.72-.72-.48-.72a8.18,8.18,0,0,1,3.86,1.21,29.7,29.7,0,0,0-4.7.6q-3.26.6-3.74.6a11.07,11.07,0,0,1-3.5-1.57,13.53,13.53,0,0,0-3.26-1.57c-.48,0-.69.08-.6.24s-.12.24-.6.24q-4.11,0-15-8.44l-4.58-6.75a50,50,0,0,1-8.2-22,73.79,73.79,0,0,1-1-10.13,3,3,0,0,1,.48-1.33,1.45,1.45,0,0,0,.24-1.33q-.49-8.92,6-23t14.23-18a18.38,18.38,0,0,0,3.38-1q6-4.34,6.75-3.86a12.3,12.3,0,0,0-4.58,3.14,6.72,6.72,0,0,0,4.1,1.45q1.45,0,3-2.17t1.09-3.62a2,2,0,0,1,1.45.48q.72,0,.72-1.45c0,.32.4.48,1.21.48q.48,0,4.46-2.65a45.69,45.69,0,0,1,6.75-3.86q2.77-1.2,14.11-3.14,7.24-1.2,6.27-1.21a4.67,4.67,0,0,1,2.17,1,4.94,4.94,0,0,0,1.93,1,7.56,7.56,0,0,0,2.17-.48,7.94,7.94,0,0,1,1.93-.48,7.22,7.22,0,0,1,1.69.24,6.47,6.47,0,0,0,1.45.24,3.18,3.18,0,0,0,1.57-.48,3,3,0,0,1,1.33-.48,3.74,3.74,0,0,1,1.69,1,3.67,3.67,0,0,0,1.69,1,34.43,34.43,0,0,0,5.55.72,1.66,1.66,0,0,0,1.09-.6,1.67,1.67,0,0,1,1.09-.6,2.41,2.41,0,0,1,1.45.36,1.46,1.46,0,0,0,.72.36,1.87,1.87,0,0,0-1.69.72v.48q2.65.24,8.68,1.45V177a3.68,3.68,0,0,1-1,1.09,1.73,1.73,0,0,0-.72,1.33c.16,0,.48.24,1,.72a2.71,2.71,0,0,0-.84-.48,2.48,2.48,0,0,1-.84-.48q-1.21,1.45-3.86,4.1l.48,1.69q.48,0,1.93-1.45c0,1.29.32,1.93,1,1.93a2.68,2.68,0,0,0,1.21-.24h.72a35.13,35.13,0,0,0-1.93,5.79q0,.72-3.86,5.79l.24,2.17a79.41,79.41,0,0,1,7.24-10.37,125.48,125.48,0,0,1-6.51,15.92c0,.16.16.4.48.72.32,0,.64-.32,1-1q3.13-8.2,11.58-23.64h1c-.16.48-.48,1.29-1,2.41l.72,1,1.45-1.45q-1.21,2.41-3.38,7.24a.77.77,0,0,0,.72.48q0-1-1.69,1.93-3.14,5.31-8.93,15a2.22,2.22,0,0,1-.12,1.57,5.74,5.74,0,0,0-.36,1.57l-1-1q-4.34,5.55-5.07,15.68-.49,7-1,14.23-.72,3.14.24,4.82a2.83,2.83,0,0,0,1-2.41q.72-3.13,1.93-9.17.24-3.38,1-10.37.24-.72,3.38-7a72.92,72.92,0,0,0,2.89-7.72,17.48,17.48,0,0,1,4.34-6.75l.72,2.17a40.42,40.42,0,0,0-5.19,13.39q-1.57,7.6-3,15.08c.64.64,1,1,1.21,1a41.75,41.75,0,0,1,8-20.26,76.86,76.86,0,0,0-4.34,10.61,78.2,78.2,0,0,0-2.17,15.92.85.85,0,0,0,1,1q-1.21,0,8.68-4.1v2.17a2.66,2.66,0,0,0,1.21.24q2.41,0,13.27-6.51l-10.86,8a3.17,3.17,0,0,0,3.14-.24c-.32.32-.89,1-1.69,1.93l-1.69-1.45a36.86,36.86,0,0,0-3.86,3.14,49.27,49.27,0,0,1-4.1,3.38q1,.24,3.14,1-1,0-7.24,2.65a34.23,34.23,0,0,1-.48,4.34c-.32,2.09-.48,3.3-.48,3.62q0,2.89,3.86,4.82a11.17,11.17,0,0,0,4.58,1.45,12.2,12.2,0,0,0,1.81-.24,13.27,13.27,0,0,1,2.29-.24l19.06-8.68a24,24,0,0,1-5.31,2.89,6.59,6.59,0,0,0-3.62,3.62,1.2,1.2,0,0,1,.6.24,1.16,1.16,0,0,0,.6.24l19.78-11.34a21,21,0,0,0,5.31.48q-.49,0,4.58-1.93,2.89-1,8.68-3.38,1.69-1,6.75-4.58,4.34-3.13,4.82-3.14c.48,0,.72.08.72.24s.16.24.48.24a3,3,0,0,0,2.17-1,9,9,0,0,0-2.17,3.86q-3.38.72-7.72,4.34c-.16.16-.08.4.24.72Q1373,246,1386,239.47Zm-178.27,1H1207v-3.62h.72Zm1.21,8.2a44.08,44.08,0,0,1-1.93-5.55c0-1.45.64-2.17,1.93-2.17Zm20.5,24.12a60.38,60.38,0,0,1-8.44-5.31l.24-.72-1,.72-3.38-3.62A117.64,117.64,0,0,1,1229.44,272.76Zm15.44,8.2a3.76,3.76,0,0,1-4.1,3.14q-2.41,0-9.17-4.1-5.31-3.38-6.75-4.58,5.07,2.66,15.68,7.48a1.56,1.56,0,0,1,.6-.36,1.49,1.49,0,0,0,.6-.36,24.81,24.81,0,0,0-4.58-3.86,49.87,49.87,0,0,0,6.51,3.14A1.63,1.63,0,0,0,1244.88,281Zm43.66-101.08h-4.1l1,1.21a1.91,1.91,0,0,1-1.21.24c-.64-.64-1.13-1-1.45-1q1,1-.24,1.93-4.34-1-3.62-1a9.79,9.79,0,0,0-5.79,2.41q-10.85,7.72-14.23,13c.48,0,1.12.4,1.93,1.21q2.17-3.62,8.44-7,5.55-2.89,8.68-2.89a1.94,1.94,0,0,1,1.21.24,47,47,0,0,0-16.89,9.41c-.81.32-1.69.64-2.65,1q-3.14,4.59-8.68,12.79-.24-1.68,1.45-4.58l2.41-4.34q-6.51,10.13-8,12.79-3.86,6.76-3.86,10.61-3.14,9.65-3.14,14.71a20.36,20.36,0,0,0,1.93,7.48q2.65,6.28,6.75,6.27a54.5,54.5,0,0,0,7.24-2.29,73.21,73.21,0,0,1,7-2.29c.48,0,.68.08.6.24s.12.24.6.24a3.76,3.76,0,0,0,1.93-.84,3.88,3.88,0,0,1,1.69-.84,22.81,22.81,0,0,0,1-7.48q.72-30.63,11.1-48.25a2.55,2.55,0,0,0-2.17,1v-1.93c0,.32-.32.81-1,1.45V190a5.78,5.78,0,0,0,2.89-.48,40.85,40.85,0,0,0,1.69-4.1H1283a1.93,1.93,0,0,1,.24,1.21l-.48,1ZM1252.12,279c-.81.64-1,1.21-.48,1.69a28.63,28.63,0,0,1-7.24-.72c.16,0,.36-.2.6-.6s.44-.6.6-.6h2.17A20.94,20.94,0,0,0,1252.12,279Zm-5.55-50.18-.48-.48-1.45,1.93.72.48Zm10.13,49.69a30.27,30.27,0,0,1-5.07-1.45,6.91,6.91,0,0,0,3.14.72,2,2,0,0,1,1.21.36A1.46,1.46,0,0,0,1256.7,278.55Zm5.79-4.82h-5.07V273h5.07Zm2.65-.24-.24.72-1.69-.48V273Zm3.62,9.17q-1.45.49-3.86,1.45a1.55,1.55,0,0,0-.84-.72,2.49,2.49,0,0,1-.84-.48,7.22,7.22,0,0,1,.24-1.21c.16-.64.36-1,.6-1.09a18,18,0,0,1,2.05-.36,20,20,0,0,1,2.41-.24,8.22,8.22,0,0,0-2.89,1.21l1.21,1.21A4,4,0,0,1,1268.76,282.65Zm-.24-55.72L1268,231h-1l.48-4.1Zm26.78-52.59a17.85,17.85,0,0,0-4.58-.72,18.87,18.87,0,0,0-6.27,1.45,5.51,5.51,0,0,1,2.17,2.41,6.49,6.49,0,0,1,2.41.48,13.68,13.68,0,0,0,2.41,1.21c.16,0,.72-1,1.69-3.14C1293.77,174.9,1294.49,174.34,1295.3,174.34Zm-9.41,2.89-.24-.72-1.21.72V178Zm6.51,4.58c.64,0,.48.57-.48,1.69l-1.93-1a5.24,5.24,0,0,0,1.21-.36A5.11,5.11,0,0,1,1292.4,181.82Zm10.13-6.51a13.48,13.48,0,0,0-1.93-.36,33,33,0,0,0-5.31-.36,17.14,17.14,0,0,1-2.65,5.07c.8,0,1.29.16,1.45.48-.64.64-1,1-1,1.21a1.17,1.17,0,0,0,.6-.24,2,2,0,0,1,1.09-.24c.48,0,.72.2.72.6s.08.6.24.6a2.79,2.79,0,0,0-.48,1.93,11.53,11.53,0,0,1,2.77-1.09c1.36-.4,2.29-.68,2.77-.84a.77.77,0,0,1-.72-.48A25.56,25.56,0,0,0,1302.53,175.3Zm-8.2,83.71v-1.93h-1V259Zm0,3.14v-1.93h-1v1.93Zm5.07-109.76v6.51q-.24,4.1-3.38,5.31a6.38,6.38,0,0,1-1.21-1.69,11.81,11.81,0,0,1-.84-3.14,22.15,22.15,0,0,1-.36-2.89q0-5.3,3.38-5.31A4.21,4.21,0,0,1,1299.4,152.39ZM1297,255.87l-.72-1.45-.72.24.72,1.21Zm1-78.4-1.21,1.45-.48-.72,1.21-1.21Zm5.79,56.21h-1l-1,7.24h.72Zm.24-51.14a2.94,2.94,0,0,0,1-.36,2.84,2.84,0,0,1,1.21-.36,5.5,5.5,0,0,0,.48,1.93A4.3,4.3,0,0,1,1304,182.54Zm25.57-17.13q0,1.69-6.51,8.2a74.43,74.43,0,0,1-8.44-3.38,29.33,29.33,0,0,1-1.93-3.14,7.34,7.34,0,0,0,.72-2.89q0-2.65-1.21-2.65a2,2,0,0,0-1.09.24,2,2,0,0,1-1.09.24,3.19,3.19,0,0,1-3-1.45q-.85-1.45-1.81-3.38,3.13-3.86,6.75-3.86a8.17,8.17,0,0,1,2.53,1.33,7,7,0,0,0,2.77,1.33c.32,0,1.12-.08,2.41-.24a26.45,26.45,0,0,1,2.65-.24q2.41,0,4.82,4.34T1329.55,165.41ZM1311,208.11l-3.86,6-.72-.48,3.86-6Zm-1.69,17.37-1.45,5.07-1-.24,1.69-4.82Zm-.72-42.46h-1.21v-.72h1.21Zm7.72,10.13-2.89,3.86-.72-.48,2.89-3.86Zm-.72-3.38-1.21,2.41-.72-.24,1.21-2.41Zm2.65-.72-1.45,1.21-.48-.48,1.45-1.21Zm6,52.59a3,3,0,0,1-.72-1.21,13.76,13.76,0,0,0-2.41,2.41c.16.16.4.44.72.84a10.16,10.16,0,0,0,.72.84Q1322.56,243.57,1324.24,241.64Zm3.38.72-2.17,2.17h1.93A4.85,4.85,0,0,1,1327.62,242.36Zm49.45-35.46a4.64,4.64,0,0,1-.24,1.45,3.91,3.91,0,0,0-.24,1h-2.41c-.32-.48-1-1.36-1.93-2.65a1.49,1.49,0,0,0-.36.6,1.11,1.11,0,0,1-.6.6,2.07,2.07,0,0,0,1.21-2.17,19.42,19.42,0,0,0-.36-3,19.37,19.37,0,0,1-.36-3,8.94,8.94,0,0,1,.24-2.17h2.41a62.41,62.41,0,0,1,1.21,6.75,11.44,11.44,0,0,1,.84,1.09A2.78,2.78,0,0,1,1377.07,206.9Z"/><path class="cls-1" d="M103.57,147.44a5.72,5.72,0,0,1-1.29-2.56.21.21,0,0,1,.19-.29l-.1-.47q-.05-.24-.86-.56t-.86-.56q-5.5-8.45-8-12.22t-2.58-4c-.07-.32,0-.49.14-.52l-.1-.47a5.43,5.43,0,0,0-.82-1.55,6.9,6.9,0,0,1-.77-1.31l-.1-.47-.05-.24q-.45-2.12-3.56-6.27A19.67,19.67,0,0,1,81,108.72a5.24,5.24,0,0,1-1.2-1q-2.57-5.13-2.67-5.6a1,1,0,0,1,.08-.76,1,1,0,0,0,.08-.76q-.2-.95-2.89-4.32l-.37.57A12.18,12.18,0,0,1,75.41,101a35.76,35.76,0,0,1,2.88,6.54,12.45,12.45,0,0,0,1.85,4,19.59,19.59,0,0,1,0,2.22c-.79-.66-1.09-.51-.89.44a9.63,9.63,0,0,1-3.33-5.21.81.81,0,0,1,.2-.78.81.81,0,0,0,.2-.78q-.05-.24-1.82-3.31a26.41,26.41,0,0,1-1.87-3.55c-.07-.32,0-.5.25-.55s.32-.23.25-.55a1,1,0,0,0-.39-.66l-.05-.24-.86-.56-.5-2.36-.45-2.12q-.91-4.25-8-14.33Q54.55,68,50.22,62.75a9.81,9.81,0,0,0-3.15-2q-1.47,3.52-2.35,5.19a54.7,54.7,0,0,0-1.37,7.45q-.69,1.38-.88,1.67a118.52,118.52,0,0,1-1.83,12.23,2.21,2.21,0,0,1-.81,1.41,1.78,1.78,0,0,0-.47,1.83,1.93,1.93,0,0,0,.49,1.13L41,91.35l.37-.57.5,2.36q.34.42-.24,3.5L40,98q-.81-.32-.69-2.07a16.88,16.88,0,0,0,.1-3,2.31,2.31,0,0,0-1.06-1.5,16.2,16.2,0,0,0-.85,4.13q.09,10.83-3.68,11.64a1.65,1.65,0,0,1-1.28-.22l-.4-1.89a8.42,8.42,0,0,0,1.82-1.87,8.08,8.08,0,0,0,.69-4.83l-.2-.94a6.15,6.15,0,0,0-.91.93c-.32.4-.55.69-.67.88q.14-.53-.15-.71a4.93,4.93,0,0,1-.87.55,1.79,1.79,0,0,0-.72.65,3.22,3.22,0,0,0-.41,1A4.71,4.71,0,0,1,28,102a8.93,8.93,0,0,1-4.5,3.18,4.54,4.54,0,0,1-3.08-.58l-.5-2.36a22.28,22.28,0,0,1-6.1.32c0-.16-.22-.28-.57-.37q-.69,1.38-2.73,1.08l-2.85-.63A25,25,0,0,1,6,99.32,36.71,36.71,0,0,1,9.1,95.45a12.29,12.29,0,0,0-.16-5.39,25.12,25.12,0,0,1,.34-9.94,8.16,8.16,0,0,1,1.3-2,42.48,42.48,0,0,1,.54-5.54,5.74,5.74,0,0,1,.52-2.21,5.29,5.29,0,0,0,.42-2.68c-.07-.32-.18-.45-.34-.42L11.67,67q0,.23,4.14-9.52,2.74-8,4.05-12.21a55.55,55.55,0,0,1,3.32-6.38q1.47-3.52,2.3-5.42,2.26-4.43,3.59-7.43a21.11,21.11,0,0,0,2.61-2.78c.9-1.18,1.7-1.68,2.39-1.5a1.39,1.39,0,0,0,0-1,5.11,5.11,0,0,1,1-1.2,13.49,13.49,0,0,1,.69-4.83,7.47,7.47,0,0,1,2.63-1.55,2.34,2.34,0,0,1,1.28.22,3.3,3.3,0,0,0,.93.3c.08,0,.23.12.45.4l.15.71a2,2,0,0,1-.46,1.33c-.37.57-.54.94-.51,1.09.07.31.19.49.36.54l1,.27a2.85,2.85,0,0,0,1.26.1L45.17,16q3,2.33,3.18,4.5l1.59-1.82a7.79,7.79,0,0,1,2.78.89,11.84,11.84,0,0,0,2.54.94c.63-.13.85-.27.66-.39l-1.43-.93c.65-.8.94-1.35.88-1.67S55.18,17,55,17s-.3-.23-.36-.54c0-.16.22-.54.74-1.14l1.89-.4q5.48,2.53,6.06,2.41a.53.53,0,0,1,.72.46,2,2,0,0,0,1,1.15,2.09,2.09,0,0,0-.59,1.85q-.1-.48,8.1,7.89a112.24,112.24,0,0,1,12.1,13.94Q87.39,46.18,95,60.85t7.92,16.32c.07.31-.21.95-.83,1.9l-2.29-1.48a1.57,1.57,0,0,0,.25,1.18,13,13,0,0,1,1.05,2.61,3.61,3.61,0,0,0,1.11,1.74,3.51,3.51,0,0,1,1,1.38,2.75,2.75,0,0,1-.06.88,2.81,2.81,0,0,0-.06.88,27.38,27.38,0,0,0,1.1,2.85,26.21,26.21,0,0,1,1.1,2.85l1.86,8.73c.1.47-.17,1.1-.83,1.9-.16,0-.43-.12-.83-.44s-.61-.57-.65-.72.05-.34.25-.55a.81.81,0,0,0,.2-.78c-.07-.32-.56-.87-1.46-1.66s-1.4-1.35-1.46-1.66c-.13-.63-.1-.88.08-.76a2.48,2.48,0,0,0-.93-.3c-.42-.08-.81-.16-1.16-.25l-.32.81c.13.63.6.86,1.38.69-.63.13-.93.28-.89.44.07.31.2.37.4.16s.34-.16.4.16a2.19,2.19,0,0,0,.44.89l.1.47c-.76-.5-1-.27-.84.67a1.4,1.4,0,0,0,.67.84c.38.25.59.45.62.61a1.26,1.26,0,0,1-.25,1.16c-.26.3-.38.53-.35.69.07.31.5.79,1.3,1.45q2.41,6.64,2.61,7.58l.77,8.22q-1.47.06-1.72,2.34l-1.59,1.82a1.42,1.42,0,0,0,1,1,10.19,10.19,0,0,0-.64,1.62,25.06,25.06,0,0,1,.23,3.4,8,8,0,0,0,1,2.26c-.41-.41-.56-.29-.42.34a2,2,0,0,0,.77,1.32l.19-.29a19.37,19.37,0,0,1,2.07,2.77c-.63.13-.86.59-.69,1.38q-.72-1.08-2.24-3l-2.19-2.74c-.53.61-.76,1.06-.69,1.38a18.82,18.82,0,0,0,.76,1.81,5.1,5.1,0,0,1,.62,2.33,2.71,2.71,0,0,0,0,1.23c-.38-.25-.84-.07-1.37.54q.39.66,1.59,2.25a8,8,0,0,1,1.3,2.06c.07.31,0,.45-.16.4s-.23.09-.16.4a7,7,0,0,0,1.54,2,7,7,0,0,1,1.54,2l.3,1.42A19.47,19.47,0,0,1,103.57,147.44Zm-88.9-38.62a.68.68,0,0,0-.52-.14q.59-1.85,0-2.46A18.11,18.11,0,0,1,18,103.66c-.31.07-.42.34-.32.81l.91.79q-.88,1.67-1.38,2.76l-1.79.87A1,1,0,0,1,14.67,108.81Zm4.16,1.58a3.26,3.26,0,0,1,1-.7l.2.94a2.41,2.41,0,0,1-2.26,1A6.23,6.23,0,0,1,18.83,110.39Zm3,4.05q-.76-3.54,2.08-4.14c-.47.1.4.32,2.61.68A7.78,7.78,0,0,1,26,114.3q-.72,2.38-1.91,2.63Q22.4,117.28,21.79,114.45ZM104,121.57c0-.16,0-.18.24-.05.35.09.49,0,.42-.34,0,.15-.24.05-.81-.32a6.66,6.66,0,0,1,1.31-.77,11.17,11.17,0,0,1-1.63-1.87,2.35,2.35,0,0,1,.22-1.28,4.27,4.27,0,0,1-.6-.49,3.66,3.66,0,0,0-.6-.49q-.17,5-.12,5.21c.1.47.77.9,2,1.3C104.25,122.5,104.1,122.2,104,121.57Zm1.53,8.31.42-.34.67.84-.42.34Z"/><path class="cls-1" d="M902.52,166.52a5.72,5.72,0,0,1-1.29-2.56.21.21,0,0,1,.19-.29l-.1-.47q-.05-.24-.86-.56t-.86-.56q-5.5-8.45-8-12.22t-2.58-4c-.07-.32,0-.49.14-.52l-.1-.47a5.43,5.43,0,0,0-.82-1.55,6.9,6.9,0,0,1-.77-1.31l-.1-.47-.05-.24q-.45-2.12-3.56-6.27a19.67,19.67,0,0,1-3.76-7.21,5.24,5.24,0,0,1-1.2-1q-2.57-5.13-2.67-5.6a1,1,0,0,1,.08-.76,1,1,0,0,0,.08-.76q-.2-.95-2.89-4.32L873,116a12.18,12.18,0,0,1,1.38,4.15,35.76,35.76,0,0,1,2.88,6.54,12.45,12.45,0,0,0,1.85,4,19.59,19.59,0,0,1,0,2.22c-.79-.66-1.09-.51-.89.44a9.63,9.63,0,0,1-3.33-5.21.81.81,0,0,1,.2-.78.81.81,0,0,0,.2-.78q-.05-.24-1.82-3.31a26.41,26.41,0,0,1-1.87-3.55c-.07-.32,0-.5.25-.55s.32-.23.25-.55a1,1,0,0,0-.39-.66l-.05-.24-.86-.56-.5-2.36-.45-2.12q-.91-4.25-8-14.33-8.33-11.3-12.66-16.54a9.81,9.81,0,0,0-3.15-2q-1.47,3.52-2.35,5.19a54.7,54.7,0,0,0-1.37,7.45q-.69,1.38-.88,1.67a118.52,118.52,0,0,1-1.83,12.23,2.21,2.21,0,0,1-.81,1.41,1.78,1.78,0,0,0-.47,1.83,1.93,1.93,0,0,0,.49,1.13l1.18-.25.37-.57.5,2.36q.34.42-.24,3.5l-1.69,1.35q-.81-.32-.69-2.07a16.88,16.88,0,0,0,.1-3,2.31,2.31,0,0,0-1.06-1.5,16.2,16.2,0,0,0-.85,4.13q.09,10.83-3.68,11.64a1.65,1.65,0,0,1-1.28-.22l-.4-1.89a8.42,8.42,0,0,0,1.82-1.87,8.08,8.08,0,0,0,.69-4.83l-.2-.94a6.15,6.15,0,0,0-.91.93c-.32.4-.55.69-.67.88q.14-.53-.15-.71a4.93,4.93,0,0,1-.87.55,1.79,1.79,0,0,0-.72.65,3.22,3.22,0,0,0-.41,1,4.71,4.71,0,0,1-2.68,1.31,8.93,8.93,0,0,1-4.5,3.18,4.54,4.54,0,0,1-3.08-.58l-.5-2.36a22.28,22.28,0,0,1-6.1.32c0-.16-.22-.28-.57-.37q-.69,1.38-2.73,1.08l-2.85-.63a25,25,0,0,1-1.7-3.34,36.71,36.71,0,0,1,3.12-3.87,12.29,12.29,0,0,0-.16-5.39,25.12,25.12,0,0,1,.34-9.94,8.16,8.16,0,0,1,1.3-2,42.48,42.48,0,0,1,.54-5.54,5.74,5.74,0,0,1,.52-2.21,5.29,5.29,0,0,0,.42-2.68c-.07-.32-.18-.45-.34-.42l-.05-.24q0,.23,4.14-9.52,2.74-8,4.05-12.21A55.55,55.55,0,0,1,822.13,58q1.47-3.52,2.3-5.42,2.26-4.43,3.59-7.43a21.11,21.11,0,0,0,2.61-2.78c.9-1.18,1.7-1.68,2.39-1.5a1.39,1.39,0,0,0,0-1,5.11,5.11,0,0,1,1-1.2,13.49,13.49,0,0,1,.69-4.83,7.47,7.47,0,0,1,2.63-1.55,2.34,2.34,0,0,1,1.28.22,3.3,3.3,0,0,0,.93.3c.08,0,.23.12.45.4l.15.71a2,2,0,0,1-.46,1.33c-.37.57-.54.94-.51,1.09.07.31.19.49.36.54l1,.27a2.85,2.85,0,0,0,1.26.1l2.24-2.21q3,2.33,3.18,4.5l1.59-1.82a7.79,7.79,0,0,1,2.78.89,11.84,11.84,0,0,0,2.54.94c.63-.13.85-.27.66-.39l-1.43-.93c.65-.8.94-1.35.88-1.67s-.19-.5-.36-.54-.3-.23-.36-.54c0-.16.22-.54.74-1.14l1.89-.4q5.48,2.53,6.06,2.41a.53.53,0,0,1,.72.46A2,2,0,0,0,864,38a2.09,2.09,0,0,0-.59,1.85q-.1-.48,8.1,7.89a112.24,112.24,0,0,1,12.1,13.94q2.75,3.6,10.31,18.27t7.92,16.32c.07.31-.21.95-.83,1.9l-2.29-1.48a1.57,1.57,0,0,0,.25,1.18,13,13,0,0,1,1.05,2.61,3.61,3.61,0,0,0,1.11,1.74,3.51,3.51,0,0,1,1,1.38,2.75,2.75,0,0,1-.06.88,2.81,2.81,0,0,0-.06.88,27.38,27.38,0,0,0,1.1,2.85,26.21,26.21,0,0,1,1.1,2.85l1.86,8.73c.1.47-.17,1.1-.83,1.9-.16,0-.43-.12-.83-.44s-.61-.57-.65-.72.05-.34.25-.55a.81.81,0,0,0,.2-.78c-.07-.32-.56-.87-1.46-1.66s-1.4-1.35-1.46-1.66c-.13-.63-.1-.88.08-.76a2.48,2.48,0,0,0-.93-.3c-.42-.08-.81-.16-1.16-.25l-.32.81c.13.63.6.86,1.38.69-.63.13-.93.28-.89.44.07.31.2.37.4.16s.34-.16.4.16a2.19,2.19,0,0,0,.44.89l.1.47c-.76-.5-1-.27-.84.67a1.4,1.4,0,0,0,.67.84c.38.25.59.45.62.61a1.26,1.26,0,0,1-.25,1.16c-.26.3-.38.53-.35.69.07.31.5.79,1.3,1.45q2.41,6.64,2.61,7.58l.77,8.22q-1.47.06-1.72,2.34l-1.59,1.82a1.42,1.42,0,0,0,1,1,10.19,10.19,0,0,0-.64,1.62,25.06,25.06,0,0,1,.23,3.4,8,8,0,0,0,1,2.26c-.41-.41-.56-.29-.42.34a2,2,0,0,0,.77,1.32l.19-.29a19.37,19.37,0,0,1,2.07,2.77c-.63.13-.86.59-.69,1.38q-.72-1.08-2.24-3l-2.19-2.74c-.53.61-.76,1.06-.69,1.38a18.82,18.82,0,0,0,.76,1.81,5.1,5.1,0,0,1,.62,2.33,2.71,2.71,0,0,0,0,1.23c-.38-.25-.84-.07-1.37.54q.39.66,1.59,2.25a8,8,0,0,1,1.3,2.06c.07.31,0,.45-.16.4s-.23.09-.16.4a7,7,0,0,0,1.54,2,7,7,0,0,1,1.54,2l.3,1.42A19.47,19.47,0,0,1,902.52,166.52Zm-88.9-38.62a.68.68,0,0,0-.52-.14q.59-1.85,0-2.46a18.11,18.11,0,0,1,3.89-2.56c-.31.07-.42.34-.32.81l.91.79q-.88,1.67-1.38,2.76l-1.79.87A1,1,0,0,1,813.61,127.9Zm4.16,1.58a3.26,3.26,0,0,1,1-.7l.2.94a2.41,2.41,0,0,1-2.26,1A6.23,6.23,0,0,1,817.77,129.48Zm3,4.05q-.76-3.54,2.08-4.14c-.47.1.4.32,2.61.68a7.78,7.78,0,0,1-.52,3.32q-.72,2.38-1.91,2.63Q821.34,136.36,820.74,133.53Zm82.18,7.13c0-.16,0-.18.24-.05.35.09.49,0,.42-.34,0,.15-.24.05-.81-.32a6.66,6.66,0,0,1,1.31-.77,11.17,11.17,0,0,1-1.63-1.87,2.35,2.35,0,0,1,.22-1.28,4.27,4.27,0,0,1-.6-.49,3.66,3.66,0,0,0-.6-.49q-.17,5-.12,5.21c.1.47.77.9,2,1.3C903.2,141.59,903.05,141.29,902.92,140.66Zm1.53,8.31.42-.34.67.84-.42.34Z"/><path class="cls-1" d="M1227.67,89a47,47,0,0,1-1.21,8.2q-.72,1.93-1.93,5.31-1.93,4.1-7,12.54-1.93,1.93-5.79,6.51v.72c0,.64-.08,1-.24,1h-1c-.16,0-.36-.16-.6-.48a1,1,0,0,0-.84-.48,1.85,1.85,0,0,0-1.33.6q-.6.6-6.88,6.39-2.66,2.66-11.34,7.72a21.69,21.69,0,0,1-4.58,1.69q-.72.72-1.93,2.17l-1.69-.48a3.81,3.81,0,0,0,1-1.45,87.94,87.94,0,0,0,12.06-8.93q1.45-1.45,4.34-4.58a1,1,0,0,0-.72-.24q-.72,0-10.37,8.05-1.93,1.71-11.1,7.07a101.93,101.93,0,0,1-14.23,6.58c0-.64.08-1,.24-1h-2.41q4.82-3.13,15.44-10.86c-.32-.32-.57-.48-.72-.48a5.54,5.54,0,0,0-1.69.48q1.45-1,3.86-2.65l-.48-.48-5.79,2.89a13.92,13.92,0,0,0,2.17-2.17.71.71,0,0,0-.48-.24.68.68,0,0,1-.48-.24l-14.72,7.24q.24-1,2.41-2.17a34,34,0,0,1,3.62-1.45,113.3,113.3,0,0,0,9.17-7.48,1.94,1.94,0,0,0-1.21-.24q.24,0-9.89,4.34a12.33,12.33,0,0,0,2.89-2.9c0-.64-.4-1-1.21-1a10.55,10.55,0,0,0-2.29.6l-2.53.84a51.65,51.65,0,0,0,8.93-4.58,1.41,1.41,0,0,0-1-.24q1-1.45,2.41-3.38a31.09,31.09,0,0,0,4.58-2.65A93.23,93.23,0,0,0,1183.77,109a18.36,18.36,0,0,0,1.93-1.69q1.45-2.65,4.58-7.72,1.2-2.17,1.45-1.69a5.72,5.72,0,0,0,1.21-2.65c.16,0,.4-.16.72-.48q.48-2.17,1.69-6a18.39,18.39,0,0,1,1.93-7c0-.16.4-.32,1.21-.48a5.81,5.81,0,0,1,1.45-1.93h1.45a9.3,9.3,0,0,0,1-2.41l-.48-.72-1,1h-1.21A5.55,5.55,0,0,1,1199,75q0,.24,2.65-5.79a7.42,7.42,0,0,1,1-.72c-.16,0-.24-.24-.24-.72v-1h1.21q1,.49.72,2.17a29.56,29.56,0,0,0-.48,3.14c-.16.16,0,.24.48.24a15.57,15.57,0,0,0,2.65-1.69,6.58,6.58,0,0,0,.72,3.38V73a4.66,4.66,0,0,0,2.41-.72,3.2,3.2,0,0,0-1.45-1.45,3.69,3.69,0,0,1,2.65,1.21c-.64.48-1,.89-1,1.21a1.78,1.78,0,0,0,.48.36,2.09,2.09,0,0,1,.48.36,4.16,4.16,0,0,0,1-2.65c0,.48-.4-.16-1.21-1.93a10.47,10.47,0,0,0,1.93-1,4.18,4.18,0,0,1,1.69-.72,4.56,4.56,0,0,1,4.58,2.65,16.7,16.7,0,0,1,1.21,6.75,2.31,2.31,0,0,0,.48,1.21,8.45,8.45,0,0,0,1.45-3.38,6,6,0,0,1,2.17.48,10.13,10.13,0,0,1-.36,1.93,11.36,11.36,0,0,1-.6,1.93,10.72,10.72,0,0,0,1.21.72q-.24.24,0,.72Q1227.67,83.41,1227.67,89Zm-49.93,55.48h-1.69v-1a1.81,1.81,0,0,1-.24-.72,10.5,10.5,0,0,0,1.93-1Zm.24-12.06-.48-.24-.48.72.48.24Z"/></svg>