<svg id="主體" xmlns="http://www.w3.org/2000/svg" viewBox="0 0 179.39 90.21"><defs><style>.cls-1{fill:#fff;}</style></defs><title>logo</title><polygon class="cls-1" points="85.35 16.91 25.62 16.91 16.91 16.91 16.91 25.63 16.91 72.91 25.62 72.91 25.62 25.63 85.35 25.63 85.35 16.91"/><rect class="cls-1" x="70.7" y="36.38" width="9.13" height="35.99" transform="translate(20.12 -20.33) rotate(17.72)"/><circle class="cls-1" cx="45.53" cy="61.71" r="11.2"/><path class="cls-1" d="M162.48,62V63.3H139.86V62H150.1V60.66h-8.29V59.47h8.29V58.18h-7.68V57h7.68V55.62H139.91V54.43H150.1V53.14h-7.52V52h7.52V50.4H152V52h7.68v2.46h2.74v1.19h-2.74v2.56H152v1.29h8.67v1.19H152V62Zm-22.62,9.51h22.62v1.34H139.86Zm19.85-7.07V70.3H142.43V64.42ZM144.23,66.8h6V65.51h-6Zm0,2.41h6V67.86h-6Zm13.58-3.7h-5.88V66.8h5.88Zm0,2.35h-5.88v1.35h5.88ZM152,54.43h5.81V53.14H152ZM152,57h5.81V55.62H152Z"/><path class="cls-1" d="M125,19.42h-3c.31-1,.42-1.23.67-2.18L121,16.91c-.16.86-.42,1.7-.64,2.51h-2V29H125Zm-1.67,8.11H120V24.89h3.3Zm0-4H120V20.89h3.3Z"/><path class="cls-1" d="M112.23,26.44c-.64.76-1.09,1.29-1.55,1.4l.47,1.37,4.92-.78.26,0c.1.48.13.94.18,1.3l1.37-.36a31,31,0,0,0-.94-4.26l-1.29.33c.15.53.28,1.14.43,1.73l-3.09.4a42.91,42.91,0,0,0,4.69-6.84l-1.4-.76c-.4.83-.86,1.67-1.32,2.51l-2.14.2h0a27.85,27.85,0,0,0,2.59-5L113.9,17a22,22,0,0,1-2.21,4.79,2.24,2.24,0,0,1-.87,1h-.13l.49,1.44,2.89-.44h0C113.27,25.07,112.56,26,112.23,26.44Z"/><polygon class="cls-1" points="122.57 29.84 120.69 29.84 120.69 31.16 110.38 31.16 110.38 32.75 120.69 32.75 120.69 40.1 122.57 40.1 122.57 32.75 132.89 32.75 132.89 31.16 122.57 31.16 122.57 29.84"/><path class="cls-1" d="M124.18,34.63a46.48,46.48,0,0,1,7.5,4.84l1.17-1.42a53.73,53.73,0,0,0-7.53-4.66Z"/><path class="cls-1" d="M128.5,24.08h0L129,24c-.83,1.27-1.57,2.25-1.9,2.66-.59.77-1.06,1.28-1.51,1.4h-.09l.25,1.36L129.1,29l2.19-.27c.1.43.2.81.25,1.16l1.35-.45c-.23-1.07-.74-2.69-1.17-4l-1.27.38c.16.48.31,1,.49,1.6l-3,.33A42.77,42.77,0,0,0,132.56,21l-1.4-.78c-.38.81-.78,1.6-1.24,2.38l-2.46.28a33.52,33.52,0,0,0,2.61-5.3l-1.52-.5a23.41,23.41,0,0,1-2.23,5c-.35.58-.66,1-1,1.06l.45,1.4Z"/><path class="cls-1" d="M117.72,33.56s-2.34,2.77-7.82,4.25l1.2,1.51s5.13-1.46,8.24-5.1Z"/><path class="cls-1" d="M159.86,39.32V29.68H142.77v9.64Zm-15.19-7.84h13.21v6H144.67Z"/><path class="cls-1" d="M145.65,26.94c2.31-.09,6.33-.27,13.72-.69a17.62,17.62,0,0,1,1.51,2.14l1.6-1.15a41.14,41.14,0,0,0-6.7-7.36l-1.5,1A46.45,46.45,0,0,1,158,24.58l-12.84.63a55.1,55.1,0,0,0,6.39-7.46l-1.85-.84a41.65,41.65,0,0,1-5.84,7.16,7.86,7.86,0,0,1-1.56,1.3h-.75l.59,1.74,3.55-.17Z"/><polygon class="cls-1" points="127.51 58.87 127.51 50.6 125.61 50.6 125.61 58.87 120.64 58.87 120.64 60.72 125.61 60.72 125.61 73.29 127.51 73.29 127.51 60.72 132.7 60.72 132.7 58.87 127.51 58.87"/><path class="cls-1" d="M111.39,65.32v7.31h8.23v-7.3ZM113,66.89H118v4.16H113Z"/><rect class="cls-1" x="111.38" y="61.62" width="8.24" height="1.56"/><rect class="cls-1" x="111.38" y="58.02" width="8.24" height="1.56"/><rect class="cls-1" x="113.04" y="50.82" width="6.58" height="1.56"/><rect class="cls-1" x="110.27" y="54.43" width="9.35" height="1.55"/></svg>