<?xml version="1.0" encoding="utf-8"?>
<!-- Generator: Adobe Illustrator 22.0.1, SVG Export Plug-In . SVG Version: 6.00 Build 0)  -->
<svg version="1.1" id="Layer_1" xmlns="http://www.w3.org/2000/svg" xmlns:xlink="http://www.w3.org/1999/xlink" x="0px" y="0px"
	 viewBox="0 0 511 511" style="enable-background:new 0 0 511 511;" xml:space="preserve">
<style type="text/css">
	.st0{fill:#FFFFFF;}
</style>
<path class="st0" d="M273.8,76.5V20c0-6.1-2.8-11.8-7.5-15.6s-11-5.2-16.9-3.8L136.8,26.4c-20.9,4.4-36,23.1-36,44.5v180.4
	c-9.1-4.3-19.2-6.8-29.9-6.8C32.3,244.5,1,275.9,1,314.4c0,38.5,31.3,69.9,69.9,69.9c38.1,0,69.1-30.6,69.8-68.5c0-0.2,0-0.4,0-0.7
	V146.9l93.7-21.6C257.3,120.3,273.8,99.9,273.8,76.5z M70.9,344.3c-16.5,0-29.9-13.4-29.9-29.9c0-16.5,13.4-29.9,29.9-29.9
	c16.5,0,29.9,13.4,29.9,29.9C100.8,330.9,87.4,344.3,70.9,344.3z M233.9,76.5c0,4.7-3.3,8.8-7.9,9.8c-0.1,0-0.2,0-0.3,0.1
	l-84.9,19.6V70.9c0-2.6,1.9-4.9,4.5-5.5c0.1,0,0.3-0.1,0.4-0.1L233.9,45V76.5z M495.2,148c-10.7-8.7-24.5-12.1-38-9.3
	c-0.3,0.1-0.5,0.1-0.8,0.2l-169.1,42.2c-20.8,4.5-35.8,23.2-35.8,44.5v152.5c-9.1-4.3-19.3-6.8-30-6.8c-38.5,0-69.9,31.3-69.9,69.9
	c0,38.5,31.3,69.9,69.9,69.9c38,0,69-30.5,69.8-68.4c0.1-0.6,0.1-1.2,0.1-1.8V302.4l180.6-43.9v67.2c-9.3-4.6-19.8-7.2-30.9-7.2
	c-38.5,0-69.9,31.3-69.9,69.9c0,38.5,31.3,69.9,69.9,69.9c11,0,20-8.9,20-20c0-11-8.9-20-20-20c-16.5,0-29.9-13.4-29.9-29.9
	c0-16.5,13.4-29.9,29.9-29.9c16.5,0,29.9,13.4,29.9,29.9c0,7.7,4.4,14.4,10.7,17.7c3,1.8,6.5,2.8,10.2,2.8c11,0,20-8.9,20-20V183.3
	C512,169.5,505.9,156.7,495.2,148z M221.6,471.1c-16.5,0-29.9-13.4-29.9-29.9c0-16.5,13.4-29.9,29.9-29.9
	c16.5,0,29.9,13.4,29.9,29.9C251.5,457.6,238.1,471.1,221.6,471.1z M291.5,225.6c0-2.6,1.9-4.9,4.5-5.5c0.3-0.1,0.5-0.1,0.8-0.2
	l168.9-42.2c2.1-0.3,3.7,0.6,4.4,1.2c0.8,0.6,2.1,2,2.1,4.3v34.2l-180.6,43.9V225.6z"/>
</svg>
